<svg xmlns="http://www.w3.org/2000/svg" width="900" height="1007.3074360871937" viewBox="0 0 900 1007.3074360871937" role="img" aria-label="MapDesigner export"><defs><pattern patternTransform="translate(450 503.6537180435968) scale(1)" id="atlas-grassland" patternUnits="userSpaceOnUse" width="42" height="42"><path d="M3 9l-2-3m2 3V4m0 5l3-4" transform="translate(6 6)" fill="none" stroke="#435B40" stroke-width="1.1" stroke-linecap="round" stroke-linejoin="round" opacity="0.4"/></pattern><pattern patternTransform="translate(450 503.6537180435968) scale(1)" id="atlas-steppe" patternUnits="userSpaceOnUse" width="42" height="42"><path d="M2 9l2-3m0 3l3-2" transform="translate(6 6)" fill="none" stroke="#435B40" stroke-width="1.1" stroke-linecap="round" stroke-linejoin="round" opacity="0.4"/></pattern><pattern patternTransform="translate(450 503.6537180435968) scale(1)" id="atlas-savanna" patternUnits="userSpaceOnUse" width="42" height="42"><path d="M5 11V6M0 6Q5 0 10 6Z" transform="translate(6 6)" fill="none" stroke="#435B40" stroke-width="1.1" stroke-linecap="round" stroke-linejoin="round" opacity="0.4"/></pattern><pattern patternTransform="translate(450 503.6537180435968) scale(1)" id="atlas-deciduous_forest" patternUnits="userSpaceOnUse" width="40" height="40"><path d="M5 12V9M5 2C-1 2-1 9 5 9C11 9 11 2 5 2Z" transform="translate(6 6)" fill="none" stroke="#435B40" stroke-width="1.1" stroke-linecap="round" stroke-linejoin="round" opacity="0.4"/></pattern><pattern patternTransform="translate(450 503.6537180435968) scale(1)" id="atlas-mixed_forest" patternUnits="userSpaceOnUse" width="40" height="40"><path d="M2 11V8M2 2C-2 2-2 8 2 8C6 8 6 2 2 2ZM8 10V3l-3 6h6Z" transform="translate(6 6)" fill="none" stroke="#435B40" stroke-width="1.1" stroke-linecap="round" stroke-linejoin="round" opacity="0.4"/></pattern><pattern patternTransform="translate(450 503.6537180435968) scale(1)" id="atlas-conifer_forest" patternUnits="userSpaceOnUse" width="40" height="40"><path d="M5 12V9M5 1L0 10h10Z" transform="translate(6 6)" fill="none" stroke="#435B40" stroke-width="1.1" stroke-linecap="round" stroke-linejoin="round" opacity="0.4"/></pattern><pattern patternTransform="translate(450 503.6537180435968) scale(1)" id="atlas-temperate_rainforest" patternUnits="userSpaceOnUse" width="40" height="40"><path d="M3 12V9M3 2C-2 2-2 9 3 9C8 9 8 2 3 2ZM9 12V4l-3 7h6Z" transform="translate(6 6)" fill="none" stroke="#435B40" stroke-width="1.1" stroke-linecap="round" stroke-linejoin="round" opacity="0.4"/></pattern><pattern patternTransform="translate(450 503.6537180435968) scale(1)" id="atlas-tropical_rainforest" patternUnits="userSpaceOnUse" width="40" height="40"><path d="M4 12V7M-1 7C-3 3 0 1 2 3C3-1 8-1 8 3C12 1 13 6 9 7ZM9 13V8" transform="translate(6 6)" fill="none" stroke="#435B40" stroke-width="1.1" stroke-linecap="round" stroke-linejoin="round" opacity="0.4"/></pattern><pattern patternTransform="translate(450 503.6537180435968) scale(1)" id="atlas-monsoon_forest" patternUnits="userSpaceOnUse" width="40" height="40"><path d="M5 12V9M5 2C-1 2-1 9 5 9C11 9 11 2 5 2ZM11 2l2 3m-1 1l2 2" transform="translate(6 6)" fill="none" stroke="#435B40" stroke-width="1.1" stroke-linecap="round" stroke-linejoin="round" opacity="0.4"/></pattern><pattern patternTransform="translate(450 503.6537180435968) scale(1)" id="atlas-cloud_forest" patternUnits="userSpaceOnUse" width="40" height="40"><path d="M5 12V8M5 0L0 8h10ZM-2 11q3-2 6 0t7 0" transform="translate(6 6)" fill="none" stroke="#435B40" stroke-width="1.1" stroke-linecap="round" stroke-linejoin="round" opacity="0.4"/></pattern><pattern patternTransform="translate(450 503.6537180435968) scale(1)" id="atlas-shrubland" patternUnits="userSpaceOnUse" width="42" height="42"><path d="M0 9Q-1 3 3 5Q5 0 7 5Q12 3 10 9Z" transform="translate(6 6)" fill="none" stroke="#435B40" stroke-width="1.1" stroke-linecap="round" stroke-linejoin="round" opacity="0.4"/></pattern><pattern patternTransform="translate(450 503.6537180435968) scale(1)" id="atlas-mediterranean" patternUnits="userSpaceOnUse" width="42" height="42"><path d="M1 10Q-2 4 3 6Q4 1 7 6Q12 4 10 10ZM13 3l2-2" transform="translate(6 6)" fill="none" stroke="#435B40" stroke-width="1.1" stroke-linecap="round" stroke-linejoin="round" opacity="0.4"/></pattern><pattern patternTransform="translate(450 503.6537180435968) scale(1)" id="atlas-xeric_shrubland" patternUnits="userSpaceOnUse" width="42" height="42"><path d="M5 11V4M5 9L1 6m4 2l4-3" transform="translate(6 6)" fill="none" stroke="#806945" stroke-width="1.1" stroke-linecap="round" stroke-linejoin="round" opacity="0.4"/></pattern><pattern patternTransform="translate(450 503.6537180435968) scale(1)" id="atlas-arid" patternUnits="userSpaceOnUse" width="42" height="42"><path d="M0 9q5-5 10 0m-7 3h5" transform="translate(6 6)" fill="none" stroke="#806945" stroke-width="1.1" stroke-linecap="round" stroke-linejoin="round" opacity="0.4"/></pattern><pattern patternTransform="translate(450 503.6537180435968) scale(1)" id="atlas-semi_arid" patternUnits="userSpaceOnUse" width="42" height="42"><path d="M0 10q3-3 6 0m4 0V5m0 3l2-2" transform="translate(6 6)" fill="none" stroke="#806945" stroke-width="1.1" stroke-linecap="round" stroke-linejoin="round" opacity="0.4"/></pattern><pattern patternTransform="translate(450 503.6537180435968) scale(1)" id="atlas-tundra" patternUnits="userSpaceOnUse" width="42" height="42"><path d="M0 8q2-3 4 0m1 2q2-3 4 0m-3-7h.2" transform="translate(6 6)" fill="none" stroke="#435B40" stroke-width="1.1" stroke-linecap="round" stroke-linejoin="round" opacity="0.4"/></pattern><pattern patternTransform="translate(450 503.6537180435968) scale(1)" id="atlas-alpine" patternUnits="userSpaceOnUse" width="42" height="42"><path d="M0 9l3-5 3 5m2 1l2-4 2 4" transform="translate(6 6)" fill="none" stroke="#435B40" stroke-width="1.1" stroke-linecap="round" stroke-linejoin="round" opacity="0.4"/></pattern><pattern patternTransform="translate(450 503.6537180435968) scale(1)" id="atlas-polar" patternUnits="userSpaceOnUse" width="42" height="42"><path d="M5 1v10M1 3l8 6M1 9l8-6" transform="translate(6 6)" fill="none" stroke="#435B40" stroke-width="1.1" stroke-linecap="round" stroke-linejoin="round" opacity="0.4"/></pattern><pattern patternTransform="translate(450 503.6537180435968) scale(1)" id="atlas-marsh" patternUnits="userSpaceOnUse" width="42" height="42"><path d="M0 11h11M3 9V3m0 4L1 5m2 1l2-2M8 9V2" transform="translate(6 6)" fill="none" stroke="#435B40" stroke-width="1.1" stroke-linecap="round" stroke-linejoin="round" opacity="0.4"/></pattern><pattern patternTransform="translate(450 503.6537180435968) scale(1)" id="atlas-swamp" patternUnits="userSpaceOnUse" width="42" height="42"><path d="M5 10V7M5 1C0 1 0 7 5 7C10 7 10 1 5 1ZM0 12h11" transform="translate(6 6)" fill="none" stroke="#435B40" stroke-width="1.1" stroke-linecap="round" stroke-linejoin="round" opacity="0.4"/></pattern><pattern patternTransform="translate(450 503.6537180435968) scale(1)" id="atlas-bog" patternUnits="userSpaceOnUse" width="42" height="42"><path d="M0 10q3-2 6 0t6 0M3 5h.1m5 1h.1" transform="translate(6 6)" fill="none" stroke="#435B40" stroke-width="1.1" stroke-linecap="round" stroke-linejoin="round" opacity="0.4"/></pattern><pattern patternTransform="translate(450 503.6537180435968) scale(1)" id="atlas-reedbed" patternUnits="userSpaceOnUse" width="42" height="42"><path d="M1 11V2m4 9V0m4 11V3M0 2h2M4 0h2M8 3h2" transform="translate(6 6)" fill="none" stroke="#435B40" stroke-width="1.1" stroke-linecap="round" stroke-linejoin="round" opacity="0.4"/></pattern><pattern patternTransform="translate(450 503.6537180435968) scale(1)" id="atlas-mangrove" patternUnits="userSpaceOnUse" width="42" height="42"><path d="M5 8V5M5 8l-4 4m4-4l4 4M0 5Q-1 0 5 0Q11 0 10 5ZM0 13h10" transform="translate(6 6)" fill="none" stroke="#435B40" stroke-width="1.1" stroke-linecap="round" stroke-linejoin="round" opacity="0.4"/></pattern><pattern patternTransform="translate(450 503.6537180435968) scale(1)" id="atlas-freshwater" patternUnits="userSpaceOnUse" width="52" height="52"><path d="M0 6q3-2 6 0t6 0" transform="translate(6 6)" fill="none" stroke="#EAF6F4" stroke-width="1.1" stroke-linecap="round" stroke-linejoin="round" opacity="0.4"/></pattern><pattern patternTransform="translate(450 503.6537180435968) scale(1)" id="atlas-marine" patternUnits="userSpaceOnUse" width="52" height="52"><path d="M0 4q3-2 6 0t6 0M4 10q3-2 6 0t6 0" transform="translate(6 6)" fill="none" stroke="#EAF6F4" stroke-width="1.1" stroke-linecap="round" stroke-linejoin="round" opacity="0.4"/></pattern><pattern patternTransform="translate(450 503.6537180435968) scale(1)" id="atlas-brackish" patternUnits="userSpaceOnUse" width="52" height="52"><path d="M0 5q3-2 6 0t6 0M3 11h.1m5 0h.1" transform="translate(6 6)" fill="none" stroke="#EAF6F4" stroke-width="1.1" stroke-linecap="round" stroke-linejoin="round" opacity="0.4"/></pattern><pattern patternTransform="translate(450 503.6537180435968) scale(1)" id="atlas-coral" patternUnits="userSpaceOnUse" width="52" height="52"><path d="M5 11V3M5 7L1 4V1m4 8l4-3V2m0 4l3-2" transform="translate(6 6)" fill="none" stroke="#EAF6F4" stroke-width="1.1" stroke-linecap="round" stroke-linejoin="round" opacity="0.4"/></pattern><pattern patternTransform="translate(450 503.6537180435968) scale(1)" id="atlas-seagrass" patternUnits="userSpaceOnUse" width="52" height="52"><path d="M2 12Q7 6 2 1M6 12Q10 7 8 3M10 12Q14 8 12 4" transform="translate(6 6)" fill="none" stroke="#EAF6F4" stroke-width="1.1" stroke-linecap="round" stroke-linejoin="round" opacity="0.4"/></pattern><pattern patternTransform="translate(450 503.6537180435968) scale(1)" id="atlas-pack_ice" patternUnits="userSpaceOnUse" width="52" height="52"><path d="M1 3l6-2 4 4-3 5-7-2Z" transform="translate(6 6)" fill="none" stroke="#EAF6F4" stroke-width="1.1" stroke-linecap="round" stroke-linejoin="round" opacity="0.4"/></pattern></defs><rect width="100%" height="100%" fill="#F4F0E6" /><g opacity="1"><polygon points="486,940.1305215509539 468,971.3074360871937 432,971.3074360871937 414,940.1305215509539 432,908.9536070147141 468,908.9536070147141" fill="#C2BB9B" stroke="#C2BB9B" stroke-width="1.05" stroke-opacity="1"/><polygon points="486,940.1305215509539 468,971.3074360871937 432,971.3074360871937 414,940.1305215509539 432,908.9536070147141 468,908.9536070147141" fill="url(#atlas-monsoon_forest)"/><path d="M-19 7Q-12-5-5 7M-2 7L8-9l11 16" transform="translate(449 938.1305215509539) scale(0.75)" fill="none" stroke="#25362F" stroke-width="1.3" stroke-linecap="round" stroke-linejoin="round" opacity=".65"/></g><g opacity="1"><polygon points="540,908.9536070147141 522,940.1305215509539 486,940.1305215509539 468,908.9536070147141 486,877.7766924784743 522,877.7766924784743" fill="#D3DEBA" stroke="#D3DEBA" stroke-width="1.05" stroke-opacity="1"/><polygon points="540,908.9536070147141 522,940.1305215509539 486,940.1305215509539 468,908.9536070147141 486,877.7766924784743 522,877.7766924784743" fill="url(#atlas-monsoon_forest)"/></g><g opacity="1"><polygon points="594,877.7766924784743 576,908.9536070147141 540,908.9536070147141 522,877.7766924784743 540,846.5997779422345 576,846.5997779422345" fill="#D3DEBA" stroke="#D3DEBA" stroke-width="1.05" stroke-opacity="1"/><polygon points="594,877.7766924784743 576,908.9536070147141 540,908.9536070147141 522,877.7766924784743 540,846.5997779422345 576,846.5997779422345" fill="url(#atlas-monsoon_forest)"/></g><g opacity="1"><polygon points="648,846.5997779422345 630,877.7766924784743 594,877.7766924784743 576,846.5997779422345 594,815.4228634059947 630,815.4228634059947" fill="#D3DEBA" stroke="#D3DEBA" stroke-width="1.05" stroke-opacity="1"/><polygon points="648,846.5997779422345 630,877.7766924784743 594,877.7766924784743 576,846.5997779422345 594,815.4228634059947 630,815.4228634059947" fill="url(#atlas-monsoon_forest)"/></g><g opacity="1"><polygon points="702,815.4228634059947 684,846.5997779422345 648,846.5997779422345 630,815.4228634059947 648,784.2459488697549 684,784.2459488697549" fill="#D3DEBA" stroke="#D3DEBA" stroke-width="1.05" stroke-opacity="1"/><polygon points="702,815.4228634059947 684,846.5997779422345 648,846.5997779422345 630,815.4228634059947 648,784.2459488697549 684,784.2459488697549" fill="url(#atlas-monsoon_forest)"/></g><g opacity="1"><polygon points="756,784.2459488697549 738,815.4228634059947 702,815.4228634059947 684,784.2459488697549 702,753.0690343335151 738,753.0690343335151" fill="#D3DEBA" stroke="#D3DEBA" stroke-width="1.05" stroke-opacity="1"/><polygon points="756,784.2459488697549 738,815.4228634059947 702,815.4228634059947 684,784.2459488697549 702,753.0690343335151 738,753.0690343335151" fill="url(#atlas-monsoon_forest)"/></g><g opacity="1"><polygon points="810,753.0690343335151 792,784.2459488697549 756,784.2459488697549 738,753.0690343335151 756,721.8921197972753 792,721.8921197972753" fill="#D3DEBA" stroke="#D3DEBA" stroke-width="1.05" stroke-opacity="1"/><polygon points="810,753.0690343335151 792,784.2459488697549 756,784.2459488697549 738,753.0690343335151 756,721.8921197972753 792,721.8921197972753" fill="url(#atlas-monsoon_forest)"/></g><g opacity="1"><polygon points="864,721.8921197972753 846,753.0690343335151 810,753.0690343335151 792,721.8921197972753 810,690.7152052610355 846,690.7152052610355" fill="#D3DEBA" stroke="#D3DEBA" stroke-width="1.05" stroke-opacity="1"/><polygon points="864,721.8921197972753 846,753.0690343335151 810,753.0690343335151 792,721.8921197972753 810,690.7152052610355 846,690.7152052610355" fill="url(#atlas-monsoon_forest)"/></g><g opacity="1"><polygon points="432,908.9536070147141 414,940.1305215509539 378,940.1305215509539 360,908.9536070147141 378,877.7766924784743 414,877.7766924784743" fill="#C2BB9B" stroke="#C2BB9B" stroke-width="1.05" stroke-opacity="1"/><polygon points="432,908.9536070147141 414,940.1305215509539 378,940.1305215509539 360,908.9536070147141 378,877.7766924784743 414,877.7766924784743" fill="url(#atlas-monsoon_forest)"/><path d="M-19 7Q-12-5-5 7M-2 7L8-9l11 16" transform="translate(398 906.9536070147141) scale(0.75)" fill="none" stroke="#25362F" stroke-width="1.3" stroke-linecap="round" stroke-linejoin="round" opacity=".65"/></g><g opacity="1"><polygon points="486,877.7766924784743 468,908.9536070147141 432,908.9536070147141 414,877.7766924784743 432,846.5997779422345 468,846.5997779422345" fill="#C2BB9B" stroke="#C2BB9B" stroke-width="1.05" stroke-opacity="1"/><polygon points="486,877.7766924784743 468,908.9536070147141 432,908.9536070147141 414,877.7766924784743 432,846.5997779422345 468,846.5997779422345" fill="url(#atlas-monsoon_forest)"/><path d="M-19 7Q-12-5-5 7M-2 7L8-9l11 16" transform="translate(451 875.7766924784743) scale(0.75)" fill="none" stroke="#25362F" stroke-width="1.3" stroke-linecap="round" stroke-linejoin="round" opacity=".65"/></g><g opacity="1"><polygon points="540,846.5997779422345 522,877.7766924784743 486,877.7766924784743 468,846.5997779422345 486,815.4228634059947 522,815.4228634059947" fill="#D3DEBA" stroke="#D3DEBA" stroke-width="1.05" stroke-opacity="1"/><polygon points="540,846.5997779422345 522,877.7766924784743 486,877.7766924784743 468,846.5997779422345 486,815.4228634059947 522,815.4228634059947" fill="url(#atlas-monsoon_forest)"/></g><g opacity="1"><polygon points="594,815.4228634059947 576,846.5997779422345 540,846.5997779422345 522,815.4228634059947 540,784.2459488697549 576,784.2459488697549" fill="#D3DEBA" stroke="#D3DEBA" stroke-width="1.05" stroke-opacity="1"/><polygon points="594,815.4228634059947 576,846.5997779422345 540,846.5997779422345 522,815.4228634059947 540,784.2459488697549 576,784.2459488697549" fill="url(#atlas-monsoon_forest)"/></g><g opacity="1"><polygon points="648,784.2459488697549 630,815.4228634059947 594,815.4228634059947 576,784.2459488697549 594,753.0690343335151 630,753.0690343335151" fill="#D3DEBA" stroke="#D3DEBA" stroke-width="1.05" stroke-opacity="1"/><polygon points="648,784.2459488697549 630,815.4228634059947 594,815.4228634059947 576,784.2459488697549 594,753.0690343335151 630,753.0690343335151" fill="url(#atlas-monsoon_forest)"/></g><g opacity="1"><polygon points="702,753.0690343335151 684,784.2459488697549 648,784.2459488697549 630,753.0690343335151 648,721.8921197972753 684,721.8921197972753" fill="#D3DEBA" stroke="#D3DEBA" stroke-width="1.05" stroke-opacity="1"/><polygon points="702,753.0690343335151 684,784.2459488697549 648,784.2459488697549 630,753.0690343335151 648,721.8921197972753 684,721.8921197972753" fill="url(#atlas-monsoon_forest)"/></g><g opacity="1"><polygon points="756,721.8921197972753 738,753.0690343335151 702,753.0690343335151 684,721.8921197972753 702,690.7152052610355 738,690.7152052610355" fill="#D3DEBA" stroke="#D3DEBA" stroke-width="1.05" stroke-opacity="1"/><polygon points="756,721.8921197972753 738,753.0690343335151 702,753.0690343335151 684,721.8921197972753 702,690.7152052610355 738,690.7152052610355" fill="url(#atlas-monsoon_forest)"/></g><g opacity="1"><polygon points="810,690.7152052610355 792,721.8921197972753 756,721.8921197972753 738,690.7152052610355 756,659.5382907247957 792,659.5382907247957" fill="#D3DEBA" stroke="#D3DEBA" stroke-width="1.05" stroke-opacity="1"/><polygon points="810,690.7152052610355 792,721.8921197972753 756,721.8921197972753 738,690.7152052610355 756,659.5382907247957 792,659.5382907247957" fill="url(#atlas-monsoon_forest)"/></g><g opacity="1"><polygon points="864,659.5382907247957 846,690.7152052610355 810,690.7152052610355 792,659.5382907247957 810,628.3613761885559 846,628.3613761885559" fill="#D3DEBA" stroke="#D3DEBA" stroke-width="1.05" stroke-opacity="1"/><polygon points="864,659.5382907247957 846,690.7152052610355 810,690.7152052610355 792,659.5382907247957 810,628.3613761885559 846,628.3613761885559" fill="url(#atlas-monsoon_forest)"/></g><g opacity="1"><polygon points="378,877.7766924784743 360,908.9536070147141 324,908.9536070147141 306,877.7766924784743 324,846.5997779422345 360,846.5997779422345" fill="#C2BB9B" stroke="#C2BB9B" stroke-width="1.05" stroke-opacity="1"/><polygon points="378,877.7766924784743 360,908.9536070147141 324,908.9536070147141 306,877.7766924784743 324,846.5997779422345 360,846.5997779422345" fill="url(#atlas-monsoon_forest)"/><path d="M-19 7Q-12-5-5 7M-2 7L8-9l11 16" transform="translate(341 875.7766924784743) scale(0.75)" fill="none" stroke="#25362F" stroke-width="1.3" stroke-linecap="round" stroke-linejoin="round" opacity=".65"/></g><g opacity="1"><polygon points="432,846.5997779422345 414,877.7766924784743 378,877.7766924784743 360,846.5997779422345 378,815.4228634059947 414,815.4228634059947" fill="#C2BB9B" stroke="#C2BB9B" stroke-width="1.05" stroke-opacity="1"/><polygon points="432,846.5997779422345 414,877.7766924784743 378,877.7766924784743 360,846.5997779422345 378,815.4228634059947 414,815.4228634059947" fill="url(#atlas-monsoon_forest)"/><path d="M-19 7Q-12-5-5 7M-2 7L8-9l11 16" transform="translate(395 844.5997779422345) scale(0.75)" fill="none" stroke="#25362F" stroke-width="1.3" stroke-linecap="round" stroke-linejoin="round" opacity=".65"/></g><g opacity="1"><polygon points="486,815.4228634059947 468,846.5997779422345 432,846.5997779422345 414,815.4228634059947 432,784.2459488697549 468,784.2459488697549" fill="#C2BB9B" stroke="#C2BB9B" stroke-width="1.05" stroke-opacity="1"/><polygon points="486,815.4228634059947 468,846.5997779422345 432,846.5997779422345 414,815.4228634059947 432,784.2459488697549 468,784.2459488697549" fill="url(#atlas-monsoon_forest)"/><path d="M-19 7Q-12-5-5 7M-2 7L8-9l11 16" transform="translate(448 813.4228634059947) scale(0.75)" fill="none" stroke="#25362F" stroke-width="1.3" stroke-linecap="round" stroke-linejoin="round" opacity=".65"/></g><g opacity="1"><polygon points="540,784.2459488697549 522,815.4228634059947 486,815.4228634059947 468,784.2459488697549 486,753.0690343335151 522,753.0690343335151" fill="#D3DEBA" stroke="#D3DEBA" stroke-width="1.05" stroke-opacity="1"/><polygon points="540,784.2459488697549 522,815.4228634059947 486,815.4228634059947 468,784.2459488697549 486,753.0690343335151 522,753.0690343335151" fill="url(#atlas-monsoon_forest)"/></g><g opacity="1"><polygon points="594,753.0690343335151 576,784.2459488697549 540,784.2459488697549 522,753.0690343335151 540,721.8921197972753 576,721.8921197972753" fill="#D3DEBA" stroke="#D3DEBA" stroke-width="1.05" stroke-opacity="1"/><polygon points="594,753.0690343335151 576,784.2459488697549 540,784.2459488697549 522,753.0690343335151 540,721.8921197972753 576,721.8921197972753" fill="url(#atlas-monsoon_forest)"/></g><g opacity="1"><polygon points="648,721.8921197972753 630,753.0690343335151 594,753.0690343335151 576,721.8921197972753 594,690.7152052610355 630,690.7152052610355" fill="#D3DEBA" stroke="#D3DEBA" stroke-width="1.05" stroke-opacity="1"/><polygon points="648,721.8921197972753 630,753.0690343335151 594,753.0690343335151 576,721.8921197972753 594,690.7152052610355 630,690.7152052610355" fill="url(#atlas-monsoon_forest)"/></g><g opacity="1"><polygon points="702,690.7152052610355 684,721.8921197972753 648,721.8921197972753 630,690.7152052610355 648,659.5382907247957 684,659.5382907247957" fill="#D3DEBA" stroke="#D3DEBA" stroke-width="1.05" stroke-opacity="1"/><polygon points="702,690.7152052610355 684,721.8921197972753 648,721.8921197972753 630,690.7152052610355 648,659.5382907247957 684,659.5382907247957" fill="url(#atlas-monsoon_forest)"/></g><g opacity="1"><polygon points="756,659.5382907247957 738,690.7152052610355 702,690.7152052610355 684,659.5382907247957 702,628.3613761885559 738,628.3613761885559" fill="#D3DEBA" stroke="#D3DEBA" stroke-width="1.05" stroke-opacity="1"/><polygon points="756,659.5382907247957 738,690.7152052610355 702,690.7152052610355 684,659.5382907247957 702,628.3613761885559 738,628.3613761885559" fill="url(#atlas-monsoon_forest)"/></g><g opacity="1"><polygon points="810,628.3613761885559 792,659.5382907247957 756,659.5382907247957 738,628.3613761885559 756,597.1844616523161 792,597.1844616523161" fill="#D3DEBA" stroke="#D3DEBA" stroke-width="1.05" stroke-opacity="1"/><polygon points="810,628.3613761885559 792,659.5382907247957 756,659.5382907247957 738,628.3613761885559 756,597.1844616523161 792,597.1844616523161" fill="url(#atlas-monsoon_forest)"/></g><g opacity="1"><polygon points="864,597.1844616523161 846,628.3613761885559 810,628.3613761885559 792,597.1844616523161 810,566.0075471160764 846,566.0075471160764" fill="#D3DEBA" stroke="#D3DEBA" stroke-width="1.05" stroke-opacity="1"/><polygon points="864,597.1844616523161 846,628.3613761885559 810,628.3613761885559 792,597.1844616523161 810,566.0075471160764 846,566.0075471160764" fill="url(#atlas-monsoon_forest)"/></g><g opacity="1"><polygon points="324,846.5997779422345 306,877.7766924784743 270,877.7766924784743 252,846.5997779422345 270,815.4228634059947 306,815.4228634059947" fill="#9B9A8A" stroke="#9B9A8A" stroke-width="1.05" stroke-opacity="1"/><polygon points="324,846.5997779422345 306,877.7766924784743 270,877.7766924784743 252,846.5997779422345 270,815.4228634059947 306,815.4228634059947" fill="url(#atlas-cloud_forest)"/><path d="M-16 9L-5-11 7 9M-5-11l2 10 4-3M3 8l8-15 12 16" transform="translate(288 844.5997779422345) scale(0.75)" fill="none" stroke="#25362F" stroke-width="1.3" stroke-linecap="round" stroke-linejoin="round" opacity=".65"/></g><g opacity="1"><polygon points="378,815.4228634059947 360,846.5997779422345 324,846.5997779422345 306,815.4228634059947 324,784.2459488697549 360,784.2459488697549" fill="#C2BB9B" stroke="#C2BB9B" stroke-width="1.05" stroke-opacity="1"/><polygon points="378,815.4228634059947 360,846.5997779422345 324,846.5997779422345 306,815.4228634059947 324,784.2459488697549 360,784.2459488697549" fill="url(#atlas-monsoon_forest)"/><path d="M-19 7Q-12-5-5 7M-2 7L8-9l11 16" transform="translate(340 813.4228634059947) scale(0.75)" fill="none" stroke="#25362F" stroke-width="1.3" stroke-linecap="round" stroke-linejoin="round" opacity=".65"/></g><g opacity="1"><polygon points="432,784.2459488697549 414,815.4228634059947 378,815.4228634059947 360,784.2459488697549 378,753.0690343335151 414,753.0690343335151" fill="#C2BB9B" stroke="#C2BB9B" stroke-width="1.05" stroke-opacity="1"/><polygon points="432,784.2459488697549 414,815.4228634059947 378,815.4228634059947 360,784.2459488697549 378,753.0690343335151 414,753.0690343335151" fill="url(#atlas-monsoon_forest)"/><path d="M-19 7Q-12-5-5 7M-2 7L8-9l11 16" transform="translate(395 782.2459488697549) scale(0.75)" fill="none" stroke="#25362F" stroke-width="1.3" stroke-linecap="round" stroke-linejoin="round" opacity=".65"/></g><g opacity="1"><polygon points="486,753.0690343335151 468,784.2459488697549 432,784.2459488697549 414,753.0690343335151 432,721.8921197972753 468,721.8921197972753" fill="#C2BB9B" stroke="#C2BB9B" stroke-width="1.05" stroke-opacity="1"/><polygon points="486,753.0690343335151 468,784.2459488697549 432,784.2459488697549 414,753.0690343335151 432,721.8921197972753 468,721.8921197972753" fill="url(#atlas-monsoon_forest)"/></g><g opacity="1"><polygon points="540,721.8921197972753 522,753.0690343335151 486,753.0690343335151 468,721.8921197972753 486,690.7152052610355 522,690.7152052610355" fill="#D3DEBA" stroke="#D3DEBA" stroke-width="1.05" stroke-opacity="1"/><polygon points="540,721.8921197972753 522,753.0690343335151 486,753.0690343335151 468,721.8921197972753 486,690.7152052610355 522,690.7152052610355" fill="url(#atlas-monsoon_forest)"/></g><g opacity="1"><polygon points="594,690.7152052610355 576,721.8921197972753 540,721.8921197972753 522,690.7152052610355 540,659.5382907247957 576,659.5382907247957" fill="#D3DEBA" stroke="#D3DEBA" stroke-width="1.05" stroke-opacity="1"/><polygon points="594,690.7152052610355 576,721.8921197972753 540,721.8921197972753 522,690.7152052610355 540,659.5382907247957 576,659.5382907247957" fill="url(#atlas-monsoon_forest)"/></g><g opacity="1"><polygon points="648,659.5382907247957 630,690.7152052610355 594,690.7152052610355 576,659.5382907247957 594,628.3613761885559 630,628.3613761885559" fill="#D3DEBA" stroke="#D3DEBA" stroke-width="1.05" stroke-opacity="1"/><polygon points="648,659.5382907247957 630,690.7152052610355 594,690.7152052610355 576,659.5382907247957 594,628.3613761885559 630,628.3613761885559" fill="url(#atlas-monsoon_forest)"/></g><g opacity="1"><polygon points="702,628.3613761885559 684,659.5382907247957 648,659.5382907247957 630,628.3613761885559 648,597.1844616523161 684,597.1844616523161" fill="#D3DEBA" stroke="#D3DEBA" stroke-width="1.05" stroke-opacity="1"/><polygon points="702,628.3613761885559 684,659.5382907247957 648,659.5382907247957 630,628.3613761885559 648,597.1844616523161 684,597.1844616523161" fill="url(#atlas-monsoon_forest)"/></g><g opacity="1"><polygon points="756,597.1844616523161 738,628.3613761885559 702,628.3613761885559 684,597.1844616523161 702,566.0075471160764 738,566.0075471160764" fill="#D3DEBA" stroke="#D3DEBA" stroke-width="1.05" stroke-opacity="1"/><polygon points="756,597.1844616523161 738,628.3613761885559 702,628.3613761885559 684,597.1844616523161 702,566.0075471160764 738,566.0075471160764" fill="url(#atlas-monsoon_forest)"/></g><g opacity="1"><polygon points="810,566.0075471160764 792,597.1844616523161 756,597.1844616523161 738,566.0075471160764 756,534.8306325798366 792,534.8306325798366" fill="#D3DEBA" stroke="#D3DEBA" stroke-width="1.05" stroke-opacity="1"/><polygon points="810,566.0075471160764 792,597.1844616523161 756,597.1844616523161 738,566.0075471160764 756,534.8306325798366 792,534.8306325798366" fill="url(#atlas-monsoon_forest)"/></g><g opacity="1"><polygon points="864,534.8306325798366 846,566.0075471160764 810,566.0075471160764 792,534.8306325798366 810,503.65371804359677 846,503.65371804359677" fill="#D3DEBA" stroke="#D3DEBA" stroke-width="1.05" stroke-opacity="1"/><polygon points="864,534.8306325798366 846,566.0075471160764 810,566.0075471160764 792,534.8306325798366 810,503.65371804359677 846,503.65371804359677" fill="url(#atlas-monsoon_forest)"/></g><g opacity="1"><polygon points="270,815.4228634059947 252,846.5997779422345 216,846.5997779422345 198,815.4228634059947 216,784.2459488697549 252,784.2459488697549" fill="#9B9A8A" stroke="#9B9A8A" stroke-width="1.05" stroke-opacity="1"/><polygon points="270,815.4228634059947 252,846.5997779422345 216,846.5997779422345 198,815.4228634059947 216,784.2459488697549 252,784.2459488697549" fill="url(#atlas-cloud_forest)"/><path d="M-16 9L-5-11 7 9M-5-11l2 10 4-3M3 8l8-15 12 16" transform="translate(232 813.4228634059947) scale(0.75)" fill="none" stroke="#25362F" stroke-width="1.3" stroke-linecap="round" stroke-linejoin="round" opacity=".65"/></g><g opacity="1"><polygon points="324,784.2459488697549 306,815.4228634059947 270,815.4228634059947 252,784.2459488697549 270,753.0690343335151 306,753.0690343335151" fill="#9B9A8A" stroke="#9B9A8A" stroke-width="1.05" stroke-opacity="1"/><polygon points="324,784.2459488697549 306,815.4228634059947 270,815.4228634059947 252,784.2459488697549 270,753.0690343335151 306,753.0690343335151" fill="url(#atlas-cloud_forest)"/><path d="M-16 9L-5-11 7 9M-5-11l2 10 4-3M3 8l8-15 12 16" transform="translate(290 782.2459488697549) scale(0.75)" fill="none" stroke="#25362F" stroke-width="1.3" stroke-linecap="round" stroke-linejoin="round" opacity=".65"/></g><g opacity="1"><polygon points="378,753.0690343335151 360,784.2459488697549 324,784.2459488697549 306,753.0690343335151 324,721.8921197972753 360,721.8921197972753" fill="#C2BB9B" stroke="#C2BB9B" stroke-width="1.05" stroke-opacity="1"/><polygon points="378,753.0690343335151 360,784.2459488697549 324,784.2459488697549 306,753.0690343335151 324,721.8921197972753 360,721.8921197972753" fill="url(#atlas-monsoon_forest)"/><path d="M-19 7Q-12-5-5 7M-2 7L8-9l11 16" transform="translate(342 751.0690343335151) scale(0.75)" fill="none" stroke="#25362F" stroke-width="1.3" stroke-linecap="round" stroke-linejoin="round" opacity=".65"/></g><g opacity="1"><polygon points="432,721.8921197972753 414,753.0690343335151 378,753.0690343335151 360,721.8921197972753 378,690.7152052610355 414,690.7152052610355" fill="#C2BB9B" stroke="#C2BB9B" stroke-width="1.05" stroke-opacity="1"/><polygon points="432,721.8921197972753 414,753.0690343335151 378,753.0690343335151 360,721.8921197972753 378,690.7152052610355 414,690.7152052610355" fill="url(#atlas-monsoon_forest)"/></g><g opacity="1"><polygon points="486,690.7152052610355 468,721.8921197972753 432,721.8921197972753 414,690.7152052610355 432,659.5382907247957 468,659.5382907247957" fill="#C2BB9B" stroke="#C2BB9B" stroke-width="1.05" stroke-opacity="1"/><polygon points="486,690.7152052610355 468,721.8921197972753 432,721.8921197972753 414,690.7152052610355 432,659.5382907247957 468,659.5382907247957" fill="url(#atlas-monsoon_forest)"/><path d="M-19 7Q-12-5-5 7M-2 7L8-9l11 16" transform="translate(452 688.7152052610355) scale(0.75)" fill="none" stroke="#25362F" stroke-width="1.3" stroke-linecap="round" stroke-linejoin="round" opacity=".65"/></g><g opacity="1"><polygon points="540,659.5382907247957 522,690.7152052610355 486,690.7152052610355 468,659.5382907247957 486,628.3613761885559 522,628.3613761885559" fill="#D3DEBA" stroke="#D3DEBA" stroke-width="1.05" stroke-opacity="1"/><polygon points="540,659.5382907247957 522,690.7152052610355 486,690.7152052610355 468,659.5382907247957 486,628.3613761885559 522,628.3613761885559" fill="url(#atlas-monsoon_forest)"/></g><g opacity="1"><polygon points="594,628.3613761885559 576,659.5382907247957 540,659.5382907247957 522,628.3613761885559 540,597.1844616523161 576,597.1844616523161" fill="#D3DEBA" stroke="#D3DEBA" stroke-width="1.05" stroke-opacity="1"/><polygon points="594,628.3613761885559 576,659.5382907247957 540,659.5382907247957 522,628.3613761885559 540,597.1844616523161 576,597.1844616523161" fill="url(#atlas-monsoon_forest)"/></g><g opacity="1"><polygon points="648,597.1844616523161 630,628.3613761885559 594,628.3613761885559 576,597.1844616523161 594,566.0075471160764 630,566.0075471160764" fill="#D3DEBA" stroke="#D3DEBA" stroke-width="1.05" stroke-opacity="1"/><polygon points="648,597.1844616523161 630,628.3613761885559 594,628.3613761885559 576,597.1844616523161 594,566.0075471160764 630,566.0075471160764" fill="url(#atlas-monsoon_forest)"/></g><g opacity="1"><polygon points="702,566.0075471160764 684,597.1844616523161 648,597.1844616523161 630,566.0075471160764 648,534.8306325798366 684,534.8306325798366" fill="#D3DEBA" stroke="#D3DEBA" stroke-width="1.05" stroke-opacity="1"/><polygon points="702,566.0075471160764 684,597.1844616523161 648,597.1844616523161 630,566.0075471160764 648,534.8306325798366 684,534.8306325798366" fill="url(#atlas-monsoon_forest)"/></g><g opacity="1"><polygon points="756,534.8306325798366 738,566.0075471160764 702,566.0075471160764 684,534.8306325798366 702,503.65371804359677 738,503.65371804359677" fill="#D3DEBA" stroke="#D3DEBA" stroke-width="1.05" stroke-opacity="1"/><polygon points="756,534.8306325798366 738,566.0075471160764 702,566.0075471160764 684,534.8306325798366 702,503.65371804359677 738,503.65371804359677" fill="url(#atlas-monsoon_forest)"/></g><g opacity="1"><polygon points="810,503.6537180435968 792,534.8306325798366 756,534.8306325798366 738,503.6537180435968 756,472.47680350735703 792,472.47680350735703" fill="#D3DEBA" stroke="#D3DEBA" stroke-width="1.05" stroke-opacity="1"/><polygon points="810,503.6537180435968 792,534.8306325798366 756,534.8306325798366 738,503.6537180435968 756,472.47680350735703 792,472.47680350735703" fill="url(#atlas-monsoon_forest)"/></g><g opacity="1"><polygon points="864,472.47680350735703 846,503.6537180435968 810,503.6537180435968 792,472.47680350735703 810,441.29988897111724 846,441.29988897111724" fill="#D3DEBA" stroke="#D3DEBA" stroke-width="1.05" stroke-opacity="1"/><polygon points="864,472.47680350735703 846,503.6537180435968 810,503.6537180435968 792,472.47680350735703 810,441.29988897111724 846,441.29988897111724" fill="url(#atlas-monsoon_forest)"/></g><g opacity="1"><polygon points="216,784.2459488697549 198,815.4228634059947 162,815.4228634059947 144,784.2459488697549 162,753.0690343335151 198,753.0690343335151" fill="#9B9A8A" stroke="#9B9A8A" stroke-width="1.05" stroke-opacity="1"/><polygon points="216,784.2459488697549 198,815.4228634059947 162,815.4228634059947 144,784.2459488697549 162,753.0690343335151 198,753.0690343335151" fill="url(#atlas-alpine)"/><path d="M-16 9L-5-11 7 9M-5-11l2 10 4-3M3 8l8-15 12 16" transform="translate(179 782.2459488697549) scale(0.75)" fill="none" stroke="#25362F" stroke-width="1.3" stroke-linecap="round" stroke-linejoin="round" opacity=".65"/></g><g opacity="1"><polygon points="270,753.0690343335151 252,784.2459488697549 216,784.2459488697549 198,753.0690343335151 216,721.8921197972753 252,721.8921197972753" fill="#9B9A8A" stroke="#9B9A8A" stroke-width="1.05" stroke-opacity="1"/><polygon points="270,753.0690343335151 252,784.2459488697549 216,784.2459488697549 198,753.0690343335151 216,721.8921197972753 252,721.8921197972753" fill="url(#atlas-alpine)"/><path d="M-16 9L-5-11 7 9M-5-11l2 10 4-3M3 8l8-15 12 16" transform="translate(232 751.0690343335151) scale(0.75)" fill="none" stroke="#25362F" stroke-width="1.3" stroke-linecap="round" stroke-linejoin="round" opacity=".65"/></g><g opacity="1"><polygon points="324,721.8921197972753 306,753.0690343335151 270,753.0690343335151 252,721.8921197972753 270,690.7152052610355 306,690.7152052610355" fill="#9B9A8A" stroke="#9B9A8A" stroke-width="1.05" stroke-opacity="1"/><polygon points="324,721.8921197972753 306,753.0690343335151 270,753.0690343335151 252,721.8921197972753 270,690.7152052610355 306,690.7152052610355" fill="url(#atlas-alpine)"/><path d="M-16 9L-5-11 7 9M-5-11l2 10 4-3M3 8l8-15 12 16" transform="translate(288 719.8921197972753) scale(0.75)" fill="none" stroke="#25362F" stroke-width="1.3" stroke-linecap="round" stroke-linejoin="round" opacity=".65"/></g><g opacity="1"><polygon points="378,690.7152052610355 360,721.8921197972753 324,721.8921197972753 306,690.7152052610355 324,659.5382907247957 360,659.5382907247957" fill="#C2BB9B" stroke="#C2BB9B" stroke-width="1.05" stroke-opacity="1"/><polygon points="378,690.7152052610355 360,721.8921197972753 324,721.8921197972753 306,690.7152052610355 324,659.5382907247957 360,659.5382907247957" fill="url(#atlas-temperate_rainforest)"/></g><g opacity="1"><polygon points="432,659.5382907247957 414,690.7152052610355 378,690.7152052610355 360,659.5382907247957 378,628.3613761885559 414,628.3613761885559" fill="#C2BB9B" stroke="#C2BB9B" stroke-width="1.05" stroke-opacity="1"/><polygon points="432,659.5382907247957 414,690.7152052610355 378,690.7152052610355 360,659.5382907247957 378,628.3613761885559 414,628.3613761885559" fill="url(#atlas-temperate_rainforest)"/><path d="M-19 7Q-12-5-5 7M-2 7L8-9l11 16" transform="translate(394 657.5382907247957) scale(0.75)" fill="none" stroke="#25362F" stroke-width="1.3" stroke-linecap="round" stroke-linejoin="round" opacity=".65"/></g><g opacity="1"><polygon points="486,628.3613761885559 468,659.5382907247957 432,659.5382907247957 414,628.3613761885559 432,597.1844616523161 468,597.1844616523161" fill="#C2BB9B" stroke="#C2BB9B" stroke-width="1.05" stroke-opacity="1"/><polygon points="486,628.3613761885559 468,659.5382907247957 432,659.5382907247957 414,628.3613761885559 432,597.1844616523161 468,597.1844616523161" fill="url(#atlas-temperate_rainforest)"/><path d="M-19 7Q-12-5-5 7M-2 7L8-9l11 16" transform="translate(449 626.3613761885559) scale(0.75)" fill="none" stroke="#25362F" stroke-width="1.3" stroke-linecap="round" stroke-linejoin="round" opacity=".65"/></g><g opacity="1"><polygon points="540,597.1844616523161 522,628.3613761885559 486,628.3613761885559 468,597.1844616523161 486,566.0075471160764 522,566.0075471160764" fill="#D3DEBA" stroke="#D3DEBA" stroke-width="1.05" stroke-opacity="1"/><polygon points="540,597.1844616523161 522,628.3613761885559 486,628.3613761885559 468,597.1844616523161 486,566.0075471160764 522,566.0075471160764" fill="url(#atlas-temperate_rainforest)"/></g><g opacity="1"><polygon points="594,566.0075471160764 576,597.1844616523161 540,597.1844616523161 522,566.0075471160764 540,534.8306325798366 576,534.8306325798366" fill="#D3DEBA" stroke="#D3DEBA" stroke-width="1.05" stroke-opacity="1"/><polygon points="594,566.0075471160764 576,597.1844616523161 540,597.1844616523161 522,566.0075471160764 540,534.8306325798366 576,534.8306325798366" fill="url(#atlas-temperate_rainforest)"/></g><g opacity="1"><polygon points="648,534.8306325798366 630,566.0075471160764 594,566.0075471160764 576,534.8306325798366 594,503.65371804359677 630,503.65371804359677" fill="#D3DEBA" stroke="#D3DEBA" stroke-width="1.05" stroke-opacity="1"/><polygon points="648,534.8306325798366 630,566.0075471160764 594,566.0075471160764 576,534.8306325798366 594,503.65371804359677 630,503.65371804359677" fill="url(#atlas-temperate_rainforest)"/></g><g opacity="1"><polygon points="702,503.6537180435968 684,534.8306325798366 648,534.8306325798366 630,503.6537180435968 648,472.47680350735703 684,472.47680350735703" fill="#D3DEBA" stroke="#D3DEBA" stroke-width="1.05" stroke-opacity="1"/><polygon points="702,503.6537180435968 684,534.8306325798366 648,534.8306325798366 630,503.6537180435968 648,472.47680350735703 684,472.47680350735703" fill="url(#atlas-temperate_rainforest)"/></g><g opacity="1"><polygon points="756,472.47680350735703 738,503.6537180435968 702,503.6537180435968 684,472.47680350735703 702,441.29988897111724 738,441.29988897111724" fill="#D3DEBA" stroke="#D3DEBA" stroke-width="1.05" stroke-opacity="1"/><polygon points="756,472.47680350735703 738,503.6537180435968 702,503.6537180435968 684,472.47680350735703 702,441.29988897111724 738,441.29988897111724" fill="url(#atlas-temperate_rainforest)"/></g><g opacity="1"><polygon points="810,441.29988897111724 792,472.47680350735703 756,472.47680350735703 738,441.29988897111724 756,410.12297443487745 792,410.12297443487745" fill="#D3DEBA" stroke="#D3DEBA" stroke-width="1.05" stroke-opacity="1"/><polygon points="810,441.29988897111724 792,472.47680350735703 756,472.47680350735703 738,441.29988897111724 756,410.12297443487745 792,410.12297443487745" fill="url(#atlas-temperate_rainforest)"/></g><g opacity="1"><polygon points="864,410.12297443487745 846,441.29988897111724 810,441.29988897111724 792,410.12297443487745 810,378.94605989863766 846,378.94605989863766" fill="#D3DEBA" stroke="#D3DEBA" stroke-width="1.05" stroke-opacity="1"/><polygon points="864,410.12297443487745 846,441.29988897111724 810,441.29988897111724 792,410.12297443487745 810,378.94605989863766 846,378.94605989863766" fill="url(#atlas-temperate_rainforest)"/></g><g opacity="1"><polygon points="162,753.0690343335151 144,784.2459488697549 108,784.2459488697549 90,753.0690343335151 108,721.8921197972753 144,721.8921197972753" fill="#9B9A8A" stroke="#9B9A8A" stroke-width="1.05" stroke-opacity="1"/><polygon points="162,753.0690343335151 144,784.2459488697549 108,784.2459488697549 90,753.0690343335151 108,721.8921197972753 144,721.8921197972753" fill="url(#atlas-alpine)"/><path d="M-16 9L-5-11 7 9M-5-11l2 10 4-3M3 8l8-15 12 16" transform="translate(125 751.0690343335151) scale(0.75)" fill="none" stroke="#25362F" stroke-width="1.3" stroke-linecap="round" stroke-linejoin="round" opacity=".65"/></g><g opacity="1"><polygon points="216,721.8921197972753 198,753.0690343335151 162,753.0690343335151 144,721.8921197972753 162,690.7152052610355 198,690.7152052610355" fill="#9B9A8A" stroke="#9B9A8A" stroke-width="1.05" stroke-opacity="1"/><polygon points="216,721.8921197972753 198,753.0690343335151 162,753.0690343335151 144,721.8921197972753 162,690.7152052610355 198,690.7152052610355" fill="url(#atlas-alpine)"/><path d="M-16 9L-5-11 7 9M-5-11l2 10 4-3M3 8l8-15 12 16" transform="translate(179 719.8921197972753) scale(0.75)" fill="none" stroke="#25362F" stroke-width="1.3" stroke-linecap="round" stroke-linejoin="round" opacity=".65"/></g><g opacity="1"><polygon points="270,690.7152052610355 252,721.8921197972753 216,721.8921197972753 198,690.7152052610355 216,659.5382907247957 252,659.5382907247957" fill="#9B9A8A" stroke="#9B9A8A" stroke-width="1.05" stroke-opacity="1"/><polygon points="270,690.7152052610355 252,721.8921197972753 216,721.8921197972753 198,690.7152052610355 216,659.5382907247957 252,659.5382907247957" fill="url(#atlas-alpine)"/><path d="M-16 9L-5-11 7 9M-5-11l2 10 4-3M3 8l8-15 12 16" transform="translate(233 688.7152052610355) scale(0.75)" fill="none" stroke="#25362F" stroke-width="1.3" stroke-linecap="round" stroke-linejoin="round" opacity=".65"/></g><g opacity="1"><polygon points="324,659.5382907247957 306,690.7152052610355 270,690.7152052610355 252,659.5382907247957 270,628.3613761885559 306,628.3613761885559" fill="#9B9A8A" stroke="#9B9A8A" stroke-width="1.05" stroke-opacity="1"/><polygon points="324,659.5382907247957 306,690.7152052610355 270,690.7152052610355 252,659.5382907247957 270,628.3613761885559 306,628.3613761885559" fill="url(#atlas-alpine)"/></g><g opacity="1"><polygon points="378,628.3613761885559 360,659.5382907247957 324,659.5382907247957 306,628.3613761885559 324,597.1844616523161 360,597.1844616523161" fill="#C2BB9B" stroke="#C2BB9B" stroke-width="1.05" stroke-opacity="1"/><polygon points="378,628.3613761885559 360,659.5382907247957 324,659.5382907247957 306,628.3613761885559 324,597.1844616523161 360,597.1844616523161" fill="url(#atlas-temperate_rainforest)"/><path d="M-19 7Q-12-5-5 7M-2 7L8-9l11 16" transform="translate(340 626.3613761885559) scale(0.75)" fill="none" stroke="#25362F" stroke-width="1.3" stroke-linecap="round" stroke-linejoin="round" opacity=".65"/></g><g opacity="1"><polygon points="432,597.1844616523161 414,628.3613761885559 378,628.3613761885559 360,597.1844616523161 378,566.0075471160764 414,566.0075471160764" fill="#C2BB9B" stroke="#C2BB9B" stroke-width="1.05" stroke-opacity="1"/><polygon points="432,597.1844616523161 414,628.3613761885559 378,628.3613761885559 360,597.1844616523161 378,566.0075471160764 414,566.0075471160764" fill="url(#atlas-temperate_rainforest)"/><path d="M-19 7Q-12-5-5 7M-2 7L8-9l11 16" transform="translate(398 595.1844616523161) scale(0.75)" fill="none" stroke="#25362F" stroke-width="1.3" stroke-linecap="round" stroke-linejoin="round" opacity=".65"/></g><g opacity="1"><polygon points="486,566.0075471160764 468,597.1844616523161 432,597.1844616523161 414,566.0075471160764 432,534.8306325798366 468,534.8306325798366" fill="#C2BB9B" stroke="#C2BB9B" stroke-width="1.05" stroke-opacity="1"/><polygon points="486,566.0075471160764 468,597.1844616523161 432,597.1844616523161 414,566.0075471160764 432,534.8306325798366 468,534.8306325798366" fill="url(#atlas-temperate_rainforest)"/><path d="M-19 7Q-12-5-5 7M-2 7L8-9l11 16" transform="translate(451 564.0075471160764) scale(0.75)" fill="none" stroke="#25362F" stroke-width="1.3" stroke-linecap="round" stroke-linejoin="round" opacity=".65"/></g><g opacity="1"><polygon points="540,534.8306325798366 522,566.0075471160764 486,566.0075471160764 468,534.8306325798366 486,503.65371804359677 522,503.65371804359677" fill="#D3DEBA" stroke="#D3DEBA" stroke-width="1.05" stroke-opacity="1"/><polygon points="540,534.8306325798366 522,566.0075471160764 486,566.0075471160764 468,534.8306325798366 486,503.65371804359677 522,503.65371804359677" fill="url(#atlas-temperate_rainforest)"/></g><g opacity="1"><polygon points="594,503.6537180435968 576,534.8306325798366 540,534.8306325798366 522,503.6537180435968 540,472.47680350735703 576,472.47680350735703" fill="#D3DEBA" stroke="#D3DEBA" stroke-width="1.05" stroke-opacity="1"/><polygon points="594,503.6537180435968 576,534.8306325798366 540,534.8306325798366 522,503.6537180435968 540,472.47680350735703 576,472.47680350735703" fill="url(#atlas-temperate_rainforest)"/></g><g opacity="1"><polygon points="648,472.47680350735703 630,503.6537180435968 594,503.6537180435968 576,472.47680350735703 594,441.29988897111724 630,441.29988897111724" fill="#D3DEBA" stroke="#D3DEBA" stroke-width="1.05" stroke-opacity="1"/><polygon points="648,472.47680350735703 630,503.6537180435968 594,503.6537180435968 576,472.47680350735703 594,441.29988897111724 630,441.29988897111724" fill="url(#atlas-temperate_rainforest)"/></g><g opacity="1"><polygon points="702,441.29988897111724 684,472.47680350735703 648,472.47680350735703 630,441.29988897111724 648,410.12297443487745 684,410.12297443487745" fill="#D3DEBA" stroke="#D3DEBA" stroke-width="1.05" stroke-opacity="1"/><polygon points="702,441.29988897111724 684,472.47680350735703 648,472.47680350735703 630,441.29988897111724 648,410.12297443487745 684,410.12297443487745" fill="url(#atlas-temperate_rainforest)"/></g><g opacity="1"><polygon points="756,410.12297443487745 738,441.29988897111724 702,441.29988897111724 684,410.12297443487745 702,378.94605989863766 738,378.94605989863766" fill="#D3DEBA" stroke="#D3DEBA" stroke-width="1.05" stroke-opacity="1"/><polygon points="756,410.12297443487745 738,441.29988897111724 702,441.29988897111724 684,410.12297443487745 702,378.94605989863766 738,378.94605989863766" fill="url(#atlas-temperate_rainforest)"/></g><g opacity="1"><polygon points="810,378.94605989863766 792,410.12297443487745 756,410.12297443487745 738,378.94605989863766 756,347.76914536239786 792,347.76914536239786" fill="#D3DEBA" stroke="#D3DEBA" stroke-width="1.05" stroke-opacity="1"/><polygon points="810,378.94605989863766 792,410.12297443487745 756,410.12297443487745 738,378.94605989863766 756,347.76914536239786 792,347.76914536239786" fill="url(#atlas-temperate_rainforest)"/></g><g opacity="1"><polygon points="864,347.7691453623979 846,378.9460598986377 810,378.9460598986377 792,347.7691453623979 810,316.59223082615813 846,316.59223082615813" fill="#D3DEBA" stroke="#D3DEBA" stroke-width="1.05" stroke-opacity="1"/><polygon points="864,347.7691453623979 846,378.9460598986377 810,378.9460598986377 792,347.7691453623979 810,316.59223082615813 846,316.59223082615813" fill="url(#atlas-temperate_rainforest)"/></g><g opacity="1"><polygon points="108,721.8921197972753 90,753.0690343335151 54,753.0690343335151 36,721.8921197972753 54,690.7152052610355 90,690.7152052610355" fill="#9B9A8A" stroke="#9B9A8A" stroke-width="1.05" stroke-opacity="1"/><polygon points="108,721.8921197972753 90,753.0690343335151 54,753.0690343335151 36,721.8921197972753 54,690.7152052610355 90,690.7152052610355" fill="url(#atlas-alpine)"/><path d="M-16 9L-5-11 7 9M-5-11l2 10 4-3M3 8l8-15 12 16" transform="translate(71 719.8921197972753) scale(0.75)" fill="none" stroke="#25362F" stroke-width="1.3" stroke-linecap="round" stroke-linejoin="round" opacity=".65"/></g><g opacity="1"><polygon points="162,690.7152052610355 144,721.8921197972753 108,721.8921197972753 90,690.7152052610355 108,659.5382907247957 144,659.5382907247957" fill="#9B9A8A" stroke="#9B9A8A" stroke-width="1.05" stroke-opacity="1"/><polygon points="162,690.7152052610355 144,721.8921197972753 108,721.8921197972753 90,690.7152052610355 108,659.5382907247957 144,659.5382907247957" fill="url(#atlas-alpine)"/><path d="M-16 9L-5-11 7 9M-5-11l2 10 4-3M3 8l8-15 12 16" transform="translate(127 688.7152052610355) scale(0.75)" fill="none" stroke="#25362F" stroke-width="1.3" stroke-linecap="round" stroke-linejoin="round" opacity=".65"/></g><g opacity="1"><polygon points="216,659.5382907247957 198,690.7152052610355 162,690.7152052610355 144,659.5382907247957 162,628.3613761885559 198,628.3613761885559" fill="#9B9A8A" stroke="#9B9A8A" stroke-width="1.05" stroke-opacity="1"/><polygon points="216,659.5382907247957 198,690.7152052610355 162,690.7152052610355 144,659.5382907247957 162,628.3613761885559 198,628.3613761885559" fill="url(#atlas-alpine)"/><path d="M-16 9L-5-11 7 9M-5-11l2 10 4-3M3 8l8-15 12 16" transform="translate(178 657.5382907247957) scale(0.75)" fill="none" stroke="#25362F" stroke-width="1.3" stroke-linecap="round" stroke-linejoin="round" opacity=".65"/></g><g opacity="1"><polygon points="270,628.3613761885559 252,659.5382907247957 216,659.5382907247957 198,628.3613761885559 216,597.1844616523161 252,597.1844616523161" fill="#9B9A8A" stroke="#9B9A8A" stroke-width="1.05" stroke-opacity="1"/><polygon points="270,628.3613761885559 252,659.5382907247957 216,659.5382907247957 198,628.3613761885559 216,597.1844616523161 252,597.1844616523161" fill="url(#atlas-alpine)"/></g><g opacity="1"><polygon points="324,597.1844616523161 306,628.3613761885559 270,628.3613761885559 252,597.1844616523161 270,566.0075471160764 306,566.0075471160764" fill="#9B9A8A" stroke="#9B9A8A" stroke-width="1.05" stroke-opacity="1"/><polygon points="324,597.1844616523161 306,628.3613761885559 270,628.3613761885559 252,597.1844616523161 270,566.0075471160764 306,566.0075471160764" fill="url(#atlas-alpine)"/><path d="M-16 9L-5-11 7 9M-5-11l2 10 4-3M3 8l8-15 12 16" transform="translate(290 595.1844616523161) scale(0.75)" fill="none" stroke="#25362F" stroke-width="1.3" stroke-linecap="round" stroke-linejoin="round" opacity=".65"/></g><g opacity="1"><polygon points="378,566.0075471160764 360,597.1844616523161 324,597.1844616523161 306,566.0075471160764 324,534.8306325798366 360,534.8306325798366" fill="#C2BB9B" stroke="#C2BB9B" stroke-width="1.05" stroke-opacity="1"/><polygon points="378,566.0075471160764 360,597.1844616523161 324,597.1844616523161 306,566.0075471160764 324,534.8306325798366 360,534.8306325798366" fill="url(#atlas-temperate_rainforest)"/><path d="M-19 7Q-12-5-5 7M-2 7L8-9l11 16" transform="translate(341 564.0075471160764) scale(0.75)" fill="none" stroke="#25362F" stroke-width="1.3" stroke-linecap="round" stroke-linejoin="round" opacity=".65"/></g><g opacity="1"><polygon points="432,534.8306325798366 414,566.0075471160764 378,566.0075471160764 360,534.8306325798366 378,503.65371804359677 414,503.65371804359677" fill="#C2BB9B" stroke="#C2BB9B" stroke-width="1.05" stroke-opacity="1"/><polygon points="432,534.8306325798366 414,566.0075471160764 378,566.0075471160764 360,534.8306325798366 378,503.65371804359677 414,503.65371804359677" fill="url(#atlas-temperate_rainforest)"/><path d="M-19 7Q-12-5-5 7M-2 7L8-9l11 16" transform="translate(397 532.8306325798366) scale(0.75)" fill="none" stroke="#25362F" stroke-width="1.3" stroke-linecap="round" stroke-linejoin="round" opacity=".65"/></g><g opacity="1"><polygon points="486,503.6537180435968 468,534.8306325798366 432,534.8306325798366 414,503.6537180435968 432,472.47680350735703 468,472.47680350735703" fill="#C2BB9B" stroke="#C2BB9B" stroke-width="1.05" stroke-opacity="1"/><polygon points="486,503.6537180435968 468,534.8306325798366 432,534.8306325798366 414,503.6537180435968 432,472.47680350735703 468,472.47680350735703" fill="url(#atlas-temperate_rainforest)"/></g><g opacity="1"><polygon points="540,472.47680350735703 522,503.6537180435968 486,503.6537180435968 468,472.47680350735703 486,441.29988897111724 522,441.29988897111724" fill="#D3DEBA" stroke="#D3DEBA" stroke-width="1.05" stroke-opacity="1"/><polygon points="540,472.47680350735703 522,503.6537180435968 486,503.6537180435968 468,472.47680350735703 486,441.29988897111724 522,441.29988897111724" fill="url(#atlas-temperate_rainforest)"/></g><g opacity="1"><polygon points="594,441.29988897111724 576,472.47680350735703 540,472.47680350735703 522,441.29988897111724 540,410.12297443487745 576,410.12297443487745" fill="#D3DEBA" stroke="#D3DEBA" stroke-width="1.05" stroke-opacity="1"/><polygon points="594,441.29988897111724 576,472.47680350735703 540,472.47680350735703 522,441.29988897111724 540,410.12297443487745 576,410.12297443487745" fill="url(#atlas-temperate_rainforest)"/></g><g opacity="1"><polygon points="648,410.12297443487745 630,441.29988897111724 594,441.29988897111724 576,410.12297443487745 594,378.94605989863766 630,378.94605989863766" fill="#D3DEBA" stroke="#D3DEBA" stroke-width="1.05" stroke-opacity="1"/><polygon points="648,410.12297443487745 630,441.29988897111724 594,441.29988897111724 576,410.12297443487745 594,378.94605989863766 630,378.94605989863766" fill="url(#atlas-temperate_rainforest)"/></g><g opacity="1"><polygon points="702,378.94605989863766 684,410.12297443487745 648,410.12297443487745 630,378.94605989863766 648,347.76914536239786 684,347.76914536239786" fill="#D3DEBA" stroke="#D3DEBA" stroke-width="1.05" stroke-opacity="1"/><polygon points="702,378.94605989863766 684,410.12297443487745 648,410.12297443487745 630,378.94605989863766 648,347.76914536239786 684,347.76914536239786" fill="url(#atlas-temperate_rainforest)"/></g><g opacity="1"><polygon points="756,347.7691453623979 738,378.9460598986377 702,378.9460598986377 684,347.7691453623979 702,316.59223082615813 738,316.59223082615813" fill="#D3DEBA" stroke="#D3DEBA" stroke-width="1.05" stroke-opacity="1"/><polygon points="756,347.7691453623979 738,378.9460598986377 702,378.9460598986377 684,347.7691453623979 702,316.59223082615813 738,316.59223082615813" fill="url(#atlas-temperate_rainforest)"/></g><g opacity="1"><polygon points="810,316.59223082615813 792,347.7691453623979 756,347.7691453623979 738,316.59223082615813 756,285.41531628991834 792,285.41531628991834" fill="#D3DEBA" stroke="#D3DEBA" stroke-width="1.05" stroke-opacity="1"/><polygon points="810,316.59223082615813 792,347.7691453623979 756,347.7691453623979 738,316.59223082615813 756,285.41531628991834 792,285.41531628991834" fill="url(#atlas-temperate_rainforest)"/></g><g opacity="1"><polygon points="864,285.41531628991834 846,316.59223082615813 810,316.59223082615813 792,285.41531628991834 810,254.23840175367854 846,254.23840175367854" fill="#D3DEBA" stroke="#D3DEBA" stroke-width="1.05" stroke-opacity="1"/><polygon points="864,285.41531628991834 846,316.59223082615813 810,316.59223082615813 792,285.41531628991834 810,254.23840175367854 846,254.23840175367854" fill="url(#atlas-temperate_rainforest)"/></g><g opacity="1"><polygon points="108,659.5382907247957 90,690.7152052610355 54,690.7152052610355 36,659.5382907247957 54,628.3613761885559 90,628.3613761885559" fill="#9B9A8A" stroke="#9B9A8A" stroke-width="1.05" stroke-opacity="1"/><polygon points="108,659.5382907247957 90,690.7152052610355 54,690.7152052610355 36,659.5382907247957 54,628.3613761885559 90,628.3613761885559" fill="url(#atlas-alpine)"/><path d="M-16 9L-5-11 7 9M-5-11l2 10 4-3M3 8l8-15 12 16" transform="translate(72 657.5382907247957) scale(0.75)" fill="none" stroke="#25362F" stroke-width="1.3" stroke-linecap="round" stroke-linejoin="round" opacity=".65"/></g><g opacity="1"><polygon points="162,628.3613761885559 144,659.5382907247957 108,659.5382907247957 90,628.3613761885559 108,597.1844616523161 144,597.1844616523161" fill="#9B9A8A" stroke="#9B9A8A" stroke-width="1.05" stroke-opacity="1"/><polygon points="162,628.3613761885559 144,659.5382907247957 108,659.5382907247957 90,628.3613761885559 108,597.1844616523161 144,597.1844616523161" fill="url(#atlas-alpine)"/><path d="M-16 9L-5-11 7 9M-5-11l2 10 4-3M3 8l8-15 12 16" transform="translate(125 626.3613761885559) scale(0.75)" fill="none" stroke="#25362F" stroke-width="1.3" stroke-linecap="round" stroke-linejoin="round" opacity=".65"/></g><g opacity="1"><polygon points="216,597.1844616523161 198,628.3613761885559 162,628.3613761885559 144,597.1844616523161 162,566.0075471160764 198,566.0075471160764" fill="#9B9A8A" stroke="#9B9A8A" stroke-width="1.05" stroke-opacity="1"/><polygon points="216,597.1844616523161 198,628.3613761885559 162,628.3613761885559 144,597.1844616523161 162,566.0075471160764 198,566.0075471160764" fill="url(#atlas-alpine)"/></g><g opacity="1"><polygon points="270,566.0075471160764 252,597.1844616523161 216,597.1844616523161 198,566.0075471160764 216,534.8306325798366 252,534.8306325798366" fill="#9B9A8A" stroke="#9B9A8A" stroke-width="1.05" stroke-opacity="1"/><polygon points="270,566.0075471160764 252,597.1844616523161 216,597.1844616523161 198,566.0075471160764 216,534.8306325798366 252,534.8306325798366" fill="url(#atlas-alpine)"/><path d="M-16 9L-5-11 7 9M-5-11l2 10 4-3M3 8l8-15 12 16" transform="translate(233 564.0075471160764) scale(0.75)" fill="none" stroke="#25362F" stroke-width="1.3" stroke-linecap="round" stroke-linejoin="round" opacity=".65"/></g><g opacity="1"><polygon points="324,534.8306325798366 306,566.0075471160764 270,566.0075471160764 252,534.8306325798366 270,503.65371804359677 306,503.65371804359677" fill="#9B9A8A" stroke="#9B9A8A" stroke-width="1.05" stroke-opacity="1"/><polygon points="324,534.8306325798366 306,566.0075471160764 270,566.0075471160764 252,534.8306325798366 270,503.65371804359677 306,503.65371804359677" fill="url(#atlas-alpine)"/><path d="M-16 9L-5-11 7 9M-5-11l2 10 4-3M3 8l8-15 12 16" transform="translate(290 532.8306325798366) scale(0.75)" fill="none" stroke="#25362F" stroke-width="1.3" stroke-linecap="round" stroke-linejoin="round" opacity=".65"/></g><g opacity="1"><polygon points="378,503.6537180435968 360,534.8306325798366 324,534.8306325798366 306,503.6537180435968 324,472.47680350735703 360,472.47680350735703" fill="#C2BB9B" stroke="#C2BB9B" stroke-width="1.05" stroke-opacity="1"/><polygon points="378,503.6537180435968 360,534.8306325798366 324,534.8306325798366 306,503.6537180435968 324,472.47680350735703 360,472.47680350735703" fill="url(#atlas-temperate_rainforest)"/><path d="M-19 7Q-12-5-5 7M-2 7L8-9l11 16" transform="translate(340 501.6537180435968) scale(0.75)" fill="none" stroke="#25362F" stroke-width="1.3" stroke-linecap="round" stroke-linejoin="round" opacity=".65"/></g><g opacity="1"><polygon points="432,472.47680350735703 414,503.6537180435968 378,503.6537180435968 360,472.47680350735703 378,441.29988897111724 414,441.29988897111724" fill="#C2BB9B" stroke="#C2BB9B" stroke-width="1.05" stroke-opacity="1"/><polygon points="432,472.47680350735703 414,503.6537180435968 378,503.6537180435968 360,472.47680350735703 378,441.29988897111724 414,441.29988897111724" fill="url(#atlas-temperate_rainforest)"/></g><g opacity="1"><polygon points="486,441.29988897111724 468,472.47680350735703 432,472.47680350735703 414,441.29988897111724 432,410.12297443487745 468,410.12297443487745" fill="#C2BB9B" stroke="#C2BB9B" stroke-width="1.05" stroke-opacity="1"/><polygon points="486,441.29988897111724 468,472.47680350735703 432,472.47680350735703 414,441.29988897111724 432,410.12297443487745 468,410.12297443487745" fill="url(#atlas-temperate_rainforest)"/><path d="M-19 7Q-12-5-5 7M-2 7L8-9l11 16" transform="translate(451 439.29988897111724) scale(0.75)" fill="none" stroke="#25362F" stroke-width="1.3" stroke-linecap="round" stroke-linejoin="round" opacity=".65"/></g><g opacity="1"><polygon points="540,410.12297443487745 522,441.29988897111724 486,441.29988897111724 468,410.12297443487745 486,378.94605989863766 522,378.94605989863766" fill="#D3DEBA" stroke="#D3DEBA" stroke-width="1.05" stroke-opacity="1"/><polygon points="540,410.12297443487745 522,441.29988897111724 486,441.29988897111724 468,410.12297443487745 486,378.94605989863766 522,378.94605989863766" fill="url(#atlas-temperate_rainforest)"/></g><g opacity="1"><polygon points="594,378.94605989863766 576,410.12297443487745 540,410.12297443487745 522,378.94605989863766 540,347.76914536239786 576,347.76914536239786" fill="#D3DEBA" stroke="#D3DEBA" stroke-width="1.05" stroke-opacity="1"/><polygon points="594,378.94605989863766 576,410.12297443487745 540,410.12297443487745 522,378.94605989863766 540,347.76914536239786 576,347.76914536239786" fill="url(#atlas-temperate_rainforest)"/></g><g opacity="1"><polygon points="648,347.7691453623979 630,378.9460598986377 594,378.9460598986377 576,347.7691453623979 594,316.59223082615813 630,316.59223082615813" fill="#D3DEBA" stroke="#D3DEBA" stroke-width="1.05" stroke-opacity="1"/><polygon points="648,347.7691453623979 630,378.9460598986377 594,378.9460598986377 576,347.7691453623979 594,316.59223082615813 630,316.59223082615813" fill="url(#atlas-temperate_rainforest)"/></g><g opacity="1"><polygon points="702,316.59223082615813 684,347.7691453623979 648,347.7691453623979 630,316.59223082615813 648,285.41531628991834 684,285.41531628991834" fill="#D3DEBA" stroke="#D3DEBA" stroke-width="1.05" stroke-opacity="1"/><polygon points="702,316.59223082615813 684,347.7691453623979 648,347.7691453623979 630,316.59223082615813 648,285.41531628991834 684,285.41531628991834" fill="url(#atlas-temperate_rainforest)"/></g><g opacity="1"><polygon points="756,285.41531628991834 738,316.59223082615813 702,316.59223082615813 684,285.41531628991834 702,254.23840175367854 738,254.23840175367854" fill="#D3DEBA" stroke="#D3DEBA" stroke-width="1.05" stroke-opacity="1"/><polygon points="756,285.41531628991834 738,316.59223082615813 702,316.59223082615813 684,285.41531628991834 702,254.23840175367854 738,254.23840175367854" fill="url(#atlas-temperate_rainforest)"/></g><g opacity="1"><polygon points="810,254.23840175367852 792,285.4153162899183 756,285.4153162899183 738,254.23840175367852 756,223.06148721743872 792,223.06148721743872" fill="#D3DEBA" stroke="#D3DEBA" stroke-width="1.05" stroke-opacity="1"/><polygon points="810,254.23840175367852 792,285.4153162899183 756,285.4153162899183 738,254.23840175367852 756,223.06148721743872 792,223.06148721743872" fill="url(#atlas-temperate_rainforest)"/></g><g opacity="1"><polygon points="108,597.1844616523161 90,628.3613761885559 54,628.3613761885559 36,597.1844616523161 54,566.0075471160764 90,566.0075471160764" fill="#9B9A8A" stroke="#9B9A8A" stroke-width="1.05" stroke-opacity="1"/><polygon points="108,597.1844616523161 90,628.3613761885559 54,628.3613761885559 36,597.1844616523161 54,566.0075471160764 90,566.0075471160764" fill="url(#atlas-alpine)"/><path d="M-16 9L-5-11 7 9M-5-11l2 10 4-3M3 8l8-15 12 16" transform="translate(74 595.1844616523161) scale(0.75)" fill="none" stroke="#25362F" stroke-width="1.3" stroke-linecap="round" stroke-linejoin="round" opacity=".65"/></g><g opacity="1"><polygon points="162,566.0075471160764 144,597.1844616523161 108,597.1844616523161 90,566.0075471160764 108,534.8306325798366 144,534.8306325798366" fill="#9B9A8A" stroke="#9B9A8A" stroke-width="1.05" stroke-opacity="1"/><polygon points="162,566.0075471160764 144,597.1844616523161 108,597.1844616523161 90,566.0075471160764 108,534.8306325798366 144,534.8306325798366" fill="url(#atlas-alpine)"/></g><g opacity="1"><polygon points="216,534.8306325798366 198,566.0075471160764 162,566.0075471160764 144,534.8306325798366 162,503.65371804359677 198,503.65371804359677" fill="#9B9A8A" stroke="#9B9A8A" stroke-width="1.05" stroke-opacity="1"/><polygon points="216,534.8306325798366 198,566.0075471160764 162,566.0075471160764 144,534.8306325798366 162,503.65371804359677 198,503.65371804359677" fill="url(#atlas-alpine)"/><path d="M-16 9L-5-11 7 9M-5-11l2 10 4-3M3 8l8-15 12 16" transform="translate(182 532.8306325798366) scale(0.75)" fill="none" stroke="#25362F" stroke-width="1.3" stroke-linecap="round" stroke-linejoin="round" opacity=".65"/></g><g opacity="1"><polygon points="270,503.6537180435968 252,534.8306325798366 216,534.8306325798366 198,503.6537180435968 216,472.47680350735703 252,472.47680350735703" fill="#9B9A8A" stroke="#9B9A8A" stroke-width="1.05" stroke-opacity="1"/><polygon points="270,503.6537180435968 252,534.8306325798366 216,534.8306325798366 198,503.6537180435968 216,472.47680350735703 252,472.47680350735703" fill="url(#atlas-alpine)"/><path d="M-16 9L-5-11 7 9M-5-11l2 10 4-3M3 8l8-15 12 16" transform="translate(232 501.6537180435968) scale(0.75)" fill="none" stroke="#25362F" stroke-width="1.3" stroke-linecap="round" stroke-linejoin="round" opacity=".65"/></g><g opacity="1"><polygon points="324,472.47680350735703 306,503.6537180435968 270,503.6537180435968 252,472.47680350735703 270,441.29988897111724 306,441.29988897111724" fill="#9B9A8A" stroke="#9B9A8A" stroke-width="1.05" stroke-opacity="1"/><polygon points="324,472.47680350735703 306,503.6537180435968 270,503.6537180435968 252,472.47680350735703 270,441.29988897111724 306,441.29988897111724" fill="url(#atlas-alpine)"/><path d="M-16 9L-5-11 7 9M-5-11l2 10 4-3M3 8l8-15 12 16" transform="translate(290 470.47680350735703) scale(0.75)" fill="none" stroke="#25362F" stroke-width="1.3" stroke-linecap="round" stroke-linejoin="round" opacity=".65"/></g><g opacity="1"><polygon points="378,441.29988897111724 360,472.47680350735703 324,472.47680350735703 306,441.29988897111724 324,410.12297443487745 360,410.12297443487745" fill="#C2BB9B" stroke="#C2BB9B" stroke-width="1.05" stroke-opacity="1"/><polygon points="378,441.29988897111724 360,472.47680350735703 324,472.47680350735703 306,441.29988897111724 324,410.12297443487745 360,410.12297443487745" fill="url(#atlas-temperate_rainforest)"/></g><g opacity="1"><polygon points="432,410.12297443487745 414,441.29988897111724 378,441.29988897111724 360,410.12297443487745 378,378.94605989863766 414,378.94605989863766" fill="#C2BB9B" stroke="#C2BB9B" stroke-width="1.05" stroke-opacity="1"/><polygon points="432,410.12297443487745 414,441.29988897111724 378,441.29988897111724 360,410.12297443487745 378,378.94605989863766 414,378.94605989863766" fill="url(#atlas-temperate_rainforest)"/><path d="M-19 7Q-12-5-5 7M-2 7L8-9l11 16" transform="translate(397 408.12297443487745) scale(0.75)" fill="none" stroke="#25362F" stroke-width="1.3" stroke-linecap="round" stroke-linejoin="round" opacity=".65"/></g><g opacity="1"><polygon points="486,378.94605989863766 468,410.12297443487745 432,410.12297443487745 414,378.94605989863766 432,347.76914536239786 468,347.76914536239786" fill="#C2BB9B" stroke="#C2BB9B" stroke-width="1.05" stroke-opacity="1"/><polygon points="486,378.94605989863766 468,410.12297443487745 432,410.12297443487745 414,378.94605989863766 432,347.76914536239786 468,347.76914536239786" fill="url(#atlas-temperate_rainforest)"/><path d="M-19 7Q-12-5-5 7M-2 7L8-9l11 16" transform="translate(449 376.94605989863766) scale(0.75)" fill="none" stroke="#25362F" stroke-width="1.3" stroke-linecap="round" stroke-linejoin="round" opacity=".65"/></g><g opacity="1"><polygon points="540,347.7691453623979 522,378.9460598986377 486,378.9460598986377 468,347.7691453623979 486,316.59223082615813 522,316.59223082615813" fill="#D3DEBA" stroke="#D3DEBA" stroke-width="1.05" stroke-opacity="1"/><polygon points="540,347.7691453623979 522,378.9460598986377 486,378.9460598986377 468,347.7691453623979 486,316.59223082615813 522,316.59223082615813" fill="url(#atlas-temperate_rainforest)"/></g><g opacity="1"><polygon points="594,316.59223082615813 576,347.7691453623979 540,347.7691453623979 522,316.59223082615813 540,285.41531628991834 576,285.41531628991834" fill="#D3DEBA" stroke="#D3DEBA" stroke-width="1.05" stroke-opacity="1"/><polygon points="594,316.59223082615813 576,347.7691453623979 540,347.7691453623979 522,316.59223082615813 540,285.41531628991834 576,285.41531628991834" fill="url(#atlas-temperate_rainforest)"/></g><g opacity="1"><polygon points="648,285.41531628991834 630,316.59223082615813 594,316.59223082615813 576,285.41531628991834 594,254.23840175367854 630,254.23840175367854" fill="#D3DEBA" stroke="#D3DEBA" stroke-width="1.05" stroke-opacity="1"/><polygon points="648,285.41531628991834 630,316.59223082615813 594,316.59223082615813 576,285.41531628991834 594,254.23840175367854 630,254.23840175367854" fill="url(#atlas-temperate_rainforest)"/></g><g opacity="1"><polygon points="702,254.23840175367852 684,285.4153162899183 648,285.4153162899183 630,254.23840175367852 648,223.06148721743872 684,223.06148721743872" fill="#D3DEBA" stroke="#D3DEBA" stroke-width="1.05" stroke-opacity="1"/><polygon points="702,254.23840175367852 684,285.4153162899183 648,285.4153162899183 630,254.23840175367852 648,223.06148721743872 684,223.06148721743872" fill="url(#atlas-temperate_rainforest)"/></g><g opacity="1"><polygon points="756,223.06148721743875 738,254.23840175367854 702,254.23840175367854 684,223.06148721743875 702,191.88457268119896 738,191.88457268119896" fill="#D3DEBA" stroke="#D3DEBA" stroke-width="1.05" stroke-opacity="1"/><polygon points="756,223.06148721743875 738,254.23840175367854 702,254.23840175367854 684,223.06148721743875 702,191.88457268119896 738,191.88457268119896" fill="url(#atlas-temperate_rainforest)"/></g><g opacity="1"><polygon points="108,534.8306325798366 90,566.0075471160764 54,566.0075471160764 36,534.8306325798366 54,503.65371804359677 90,503.65371804359677" fill="#9B9A8A" stroke="#9B9A8A" stroke-width="1.05" stroke-opacity="1"/><polygon points="108,534.8306325798366 90,566.0075471160764 54,566.0075471160764 36,534.8306325798366 54,503.65371804359677 90,503.65371804359677" fill="url(#atlas-conifer_forest)"/></g><g opacity="1"><polygon points="162,503.6537180435968 144,534.8306325798366 108,534.8306325798366 90,503.6537180435968 108,472.47680350735703 144,472.47680350735703" fill="#9B9A8A" stroke="#9B9A8A" stroke-width="1.05" stroke-opacity="1"/><polygon points="162,503.6537180435968 144,534.8306325798366 108,534.8306325798366 90,503.6537180435968 108,472.47680350735703 144,472.47680350735703" fill="url(#atlas-conifer_forest)"/><path d="M-16 9L-5-11 7 9M-5-11l2 10 4-3M3 8l8-15 12 16" transform="translate(127 501.6537180435968) scale(0.75)" fill="none" stroke="#25362F" stroke-width="1.3" stroke-linecap="round" stroke-linejoin="round" opacity=".65"/></g><g opacity="1"><polygon points="216,472.47680350735703 198,503.6537180435968 162,503.6537180435968 144,472.47680350735703 162,441.29988897111724 198,441.29988897111724" fill="#9B9A8A" stroke="#9B9A8A" stroke-width="1.05" stroke-opacity="1"/><polygon points="216,472.47680350735703 198,503.6537180435968 162,503.6537180435968 144,472.47680350735703 162,441.29988897111724 198,441.29988897111724" fill="url(#atlas-conifer_forest)"/><path d="M-16 9L-5-11 7 9M-5-11l2 10 4-3M3 8l8-15 12 16" transform="translate(178 470.47680350735703) scale(0.75)" fill="none" stroke="#25362F" stroke-width="1.3" stroke-linecap="round" stroke-linejoin="round" opacity=".65"/></g><g opacity="1"><polygon points="270,441.29988897111724 252,472.47680350735703 216,472.47680350735703 198,441.29988897111724 216,410.12297443487745 252,410.12297443487745" fill="#9B9A8A" stroke="#9B9A8A" stroke-width="1.05" stroke-opacity="1"/><polygon points="270,441.29988897111724 252,472.47680350735703 216,472.47680350735703 198,441.29988897111724 216,410.12297443487745 252,410.12297443487745" fill="url(#atlas-conifer_forest)"/><path d="M-16 9L-5-11 7 9M-5-11l2 10 4-3M3 8l8-15 12 16" transform="translate(232 439.29988897111724) scale(0.75)" fill="none" stroke="#25362F" stroke-width="1.3" stroke-linecap="round" stroke-linejoin="round" opacity=".65"/></g><g opacity="1"><polygon points="324,410.12297443487745 306,441.29988897111724 270,441.29988897111724 252,410.12297443487745 270,378.94605989863766 306,378.94605989863766" fill="#9B9A8A" stroke="#9B9A8A" stroke-width="1.05" stroke-opacity="1"/><polygon points="324,410.12297443487745 306,441.29988897111724 270,441.29988897111724 252,410.12297443487745 270,378.94605989863766 306,378.94605989863766" fill="url(#atlas-conifer_forest)"/></g><g opacity="1"><polygon points="378,378.94605989863766 360,410.12297443487745 324,410.12297443487745 306,378.94605989863766 324,347.76914536239786 360,347.76914536239786" fill="#C2BB9B" stroke="#C2BB9B" stroke-width="1.05" stroke-opacity="1"/><polygon points="378,378.94605989863766 360,410.12297443487745 324,410.12297443487745 306,378.94605989863766 324,347.76914536239786 360,347.76914536239786" fill="url(#atlas-conifer_forest)"/><path d="M-19 7Q-12-5-5 7M-2 7L8-9l11 16" transform="translate(342 376.94605989863766) scale(0.75)" fill="none" stroke="#25362F" stroke-width="1.3" stroke-linecap="round" stroke-linejoin="round" opacity=".65"/></g><g opacity="1"><polygon points="432,347.7691453623979 414,378.9460598986377 378,378.9460598986377 360,347.7691453623979 378,316.59223082615813 414,316.59223082615813" fill="#C2BB9B" stroke="#C2BB9B" stroke-width="1.05" stroke-opacity="1"/><polygon points="432,347.7691453623979 414,378.9460598986377 378,378.9460598986377 360,347.7691453623979 378,316.59223082615813 414,316.59223082615813" fill="url(#atlas-conifer_forest)"/><path d="M-19 7Q-12-5-5 7M-2 7L8-9l11 16" transform="translate(395 345.7691453623979) scale(0.75)" fill="none" stroke="#25362F" stroke-width="1.3" stroke-linecap="round" stroke-linejoin="round" opacity=".65"/></g><g opacity="1"><polygon points="486,316.59223082615813 468,347.7691453623979 432,347.7691453623979 414,316.59223082615813 432,285.41531628991834 468,285.41531628991834" fill="#C2BB9B" stroke="#C2BB9B" stroke-width="1.05" stroke-opacity="1"/><polygon points="486,316.59223082615813 468,347.7691453623979 432,347.7691453623979 414,316.59223082615813 432,285.41531628991834 468,285.41531628991834" fill="url(#atlas-conifer_forest)"/><path d="M-19 7Q-12-5-5 7M-2 7L8-9l11 16" transform="translate(452 314.59223082615813) scale(0.75)" fill="none" stroke="#25362F" stroke-width="1.3" stroke-linecap="round" stroke-linejoin="round" opacity=".65"/></g><g opacity="1"><polygon points="540,285.41531628991834 522,316.59223082615813 486,316.59223082615813 468,285.41531628991834 486,254.23840175367854 522,254.23840175367854" fill="#D3DEBA" stroke="#D3DEBA" stroke-width="1.05" stroke-opacity="1"/><polygon points="540,285.41531628991834 522,316.59223082615813 486,316.59223082615813 468,285.41531628991834 486,254.23840175367854 522,254.23840175367854" fill="url(#atlas-conifer_forest)"/></g><g opacity="1"><polygon points="594,254.23840175367852 576,285.4153162899183 540,285.4153162899183 522,254.23840175367852 540,223.06148721743872 576,223.06148721743872" fill="#D3DEBA" stroke="#D3DEBA" stroke-width="1.05" stroke-opacity="1"/><polygon points="594,254.23840175367852 576,285.4153162899183 540,285.4153162899183 522,254.23840175367852 540,223.06148721743872 576,223.06148721743872" fill="url(#atlas-conifer_forest)"/></g><g opacity="1"><polygon points="648,223.06148721743875 630,254.23840175367854 594,254.23840175367854 576,223.06148721743875 594,191.88457268119896 630,191.88457268119896" fill="#D3DEBA" stroke="#D3DEBA" stroke-width="1.05" stroke-opacity="1"/><polygon points="648,223.06148721743875 630,254.23840175367854 594,254.23840175367854 576,223.06148721743875 594,191.88457268119896 630,191.88457268119896" fill="url(#atlas-conifer_forest)"/></g><g opacity="1"><polygon points="702,191.88457268119896 684,223.06148721743875 648,223.06148721743875 630,191.88457268119896 648,160.70765814495917 684,160.70765814495917" fill="#D3DEBA" stroke="#D3DEBA" stroke-width="1.05" stroke-opacity="1"/><polygon points="702,191.88457268119896 684,223.06148721743875 648,223.06148721743875 630,191.88457268119896 648,160.70765814495917 684,160.70765814495917" fill="url(#atlas-conifer_forest)"/></g><g opacity="1"><polygon points="108,472.47680350735703 90,503.6537180435968 54,503.6537180435968 36,472.47680350735703 54,441.29988897111724 90,441.29988897111724" fill="#9B9A8A" stroke="#9B9A8A" stroke-width="1.05" stroke-opacity="1"/><polygon points="108,472.47680350735703 90,503.6537180435968 54,503.6537180435968 36,472.47680350735703 54,441.29988897111724 90,441.29988897111724" fill="url(#atlas-conifer_forest)"/><path d="M-16 9L-5-11 7 9M-5-11l2 10 4-3M3 8l8-15 12 16" transform="translate(73 470.47680350735703) scale(0.75)" fill="none" stroke="#25362F" stroke-width="1.3" stroke-linecap="round" stroke-linejoin="round" opacity=".65"/></g><g opacity="1"><polygon points="162,441.29988897111724 144,472.47680350735703 108,472.47680350735703 90,441.29988897111724 108,410.12297443487745 144,410.12297443487745" fill="#9B9A8A" stroke="#9B9A8A" stroke-width="1.05" stroke-opacity="1"/><polygon points="162,441.29988897111724 144,472.47680350735703 108,472.47680350735703 90,441.29988897111724 108,410.12297443487745 144,410.12297443487745" fill="url(#atlas-conifer_forest)"/><path d="M-16 9L-5-11 7 9M-5-11l2 10 4-3M3 8l8-15 12 16" transform="translate(127 439.29988897111724) scale(0.75)" fill="none" stroke="#25362F" stroke-width="1.3" stroke-linecap="round" stroke-linejoin="round" opacity=".65"/></g><g opacity="1"><polygon points="216,410.12297443487745 198,441.29988897111724 162,441.29988897111724 144,410.12297443487745 162,378.94605989863766 198,378.94605989863766" fill="#9B9A8A" stroke="#9B9A8A" stroke-width="1.05" stroke-opacity="1"/><polygon points="216,410.12297443487745 198,441.29988897111724 162,441.29988897111724 144,410.12297443487745 162,378.94605989863766 198,378.94605989863766" fill="url(#atlas-conifer_forest)"/><path d="M-16 9L-5-11 7 9M-5-11l2 10 4-3M3 8l8-15 12 16" transform="translate(180 408.12297443487745) scale(0.75)" fill="none" stroke="#25362F" stroke-width="1.3" stroke-linecap="round" stroke-linejoin="round" opacity=".65"/></g><g opacity="1"><polygon points="270,378.94605989863766 252,410.12297443487745 216,410.12297443487745 198,378.94605989863766 216,347.76914536239786 252,347.76914536239786" fill="#9B9A8A" stroke="#9B9A8A" stroke-width="1.05" stroke-opacity="1"/><polygon points="270,378.94605989863766 252,410.12297443487745 216,410.12297443487745 198,378.94605989863766 216,347.76914536239786 252,347.76914536239786" fill="url(#atlas-conifer_forest)"/></g><g opacity="1"><polygon points="324,347.7691453623979 306,378.9460598986377 270,378.9460598986377 252,347.7691453623979 270,316.59223082615813 306,316.59223082615813" fill="#9B9A8A" stroke="#9B9A8A" stroke-width="1.05" stroke-opacity="1"/><polygon points="324,347.7691453623979 306,378.9460598986377 270,378.9460598986377 252,347.7691453623979 270,316.59223082615813 306,316.59223082615813" fill="url(#atlas-conifer_forest)"/><path d="M-16 9L-5-11 7 9M-5-11l2 10 4-3M3 8l8-15 12 16" transform="translate(287 345.7691453623979) scale(0.75)" fill="none" stroke="#25362F" stroke-width="1.3" stroke-linecap="round" stroke-linejoin="round" opacity=".65"/></g><g opacity="1"><polygon points="378,316.59223082615813 360,347.7691453623979 324,347.7691453623979 306,316.59223082615813 324,285.41531628991834 360,285.41531628991834" fill="#C2BB9B" stroke="#C2BB9B" stroke-width="1.05" stroke-opacity="1"/><polygon points="378,316.59223082615813 360,347.7691453623979 324,347.7691453623979 306,316.59223082615813 324,285.41531628991834 360,285.41531628991834" fill="url(#atlas-conifer_forest)"/><path d="M-19 7Q-12-5-5 7M-2 7L8-9l11 16" transform="translate(341 314.59223082615813) scale(0.75)" fill="none" stroke="#25362F" stroke-width="1.3" stroke-linecap="round" stroke-linejoin="round" opacity=".65"/></g><g opacity="1"><polygon points="432,285.41531628991834 414,316.59223082615813 378,316.59223082615813 360,285.41531628991834 378,254.23840175367854 414,254.23840175367854" fill="#C2BB9B" stroke="#C2BB9B" stroke-width="1.05" stroke-opacity="1"/><polygon points="432,285.41531628991834 414,316.59223082615813 378,316.59223082615813 360,285.41531628991834 378,254.23840175367854 414,254.23840175367854" fill="url(#atlas-conifer_forest)"/><path d="M-19 7Q-12-5-5 7M-2 7L8-9l11 16" transform="translate(398 283.41531628991834) scale(0.75)" fill="none" stroke="#25362F" stroke-width="1.3" stroke-linecap="round" stroke-linejoin="round" opacity=".65"/></g><g opacity="1"><polygon points="486,254.23840175367852 468,285.4153162899183 432,285.4153162899183 414,254.23840175367852 432,223.06148721743872 468,223.06148721743872" fill="#C2BB9B" stroke="#C2BB9B" stroke-width="1.05" stroke-opacity="1"/><polygon points="486,254.23840175367852 468,285.4153162899183 432,285.4153162899183 414,254.23840175367852 432,223.06148721743872 468,223.06148721743872" fill="url(#atlas-conifer_forest)"/></g><g opacity="1"><polygon points="540,223.06148721743875 522,254.23840175367854 486,254.23840175367854 468,223.06148721743875 486,191.88457268119896 522,191.88457268119896" fill="#D3DEBA" stroke="#D3DEBA" stroke-width="1.05" stroke-opacity="1"/><polygon points="540,223.06148721743875 522,254.23840175367854 486,254.23840175367854 468,223.06148721743875 486,191.88457268119896 522,191.88457268119896" fill="url(#atlas-conifer_forest)"/></g><g opacity="1"><polygon points="594,191.88457268119896 576,223.06148721743875 540,223.06148721743875 522,191.88457268119896 540,160.70765814495917 576,160.70765814495917" fill="#D3DEBA" stroke="#D3DEBA" stroke-width="1.05" stroke-opacity="1"/><polygon points="594,191.88457268119896 576,223.06148721743875 540,223.06148721743875 522,191.88457268119896 540,160.70765814495917 576,160.70765814495917" fill="url(#atlas-conifer_forest)"/></g><g opacity="1"><polygon points="648,160.70765814495917 630,191.88457268119896 594,191.88457268119896 576,160.70765814495917 594,129.53074360871938 630,129.53074360871938" fill="#D3DEBA" stroke="#D3DEBA" stroke-width="1.05" stroke-opacity="1"/><polygon points="648,160.70765814495917 630,191.88457268119896 594,191.88457268119896 576,160.70765814495917 594,129.53074360871938 630,129.53074360871938" fill="url(#atlas-conifer_forest)"/></g><g opacity="1"><polygon points="108,410.12297443487745 90,441.29988897111724 54,441.29988897111724 36,410.12297443487745 54,378.94605989863766 90,378.94605989863766" fill="#9B9A8A" stroke="#9B9A8A" stroke-width="1.05" stroke-opacity="1"/><polygon points="108,410.12297443487745 90,441.29988897111724 54,441.29988897111724 36,410.12297443487745 54,378.94605989863766 90,378.94605989863766" fill="url(#atlas-conifer_forest)"/><path d="M-16 9L-5-11 7 9M-5-11l2 10 4-3M3 8l8-15 12 16" transform="translate(70 408.12297443487745) scale(0.75)" fill="none" stroke="#25362F" stroke-width="1.3" stroke-linecap="round" stroke-linejoin="round" opacity=".65"/></g><g opacity="1"><polygon points="162,378.94605989863766 144,410.12297443487745 108,410.12297443487745 90,378.94605989863766 108,347.76914536239786 144,347.76914536239786" fill="#9B9A8A" stroke="#9B9A8A" stroke-width="1.05" stroke-opacity="1"/><polygon points="162,378.94605989863766 144,410.12297443487745 108,410.12297443487745 90,378.94605989863766 108,347.76914536239786 144,347.76914536239786" fill="url(#atlas-conifer_forest)"/><path d="M-16 9L-5-11 7 9M-5-11l2 10 4-3M3 8l8-15 12 16" transform="translate(128 376.94605989863766) scale(0.75)" fill="none" stroke="#25362F" stroke-width="1.3" stroke-linecap="round" stroke-linejoin="round" opacity=".65"/></g><g opacity="1"><polygon points="216,347.7691453623979 198,378.9460598986377 162,378.9460598986377 144,347.7691453623979 162,316.59223082615813 198,316.59223082615813" fill="#9B9A8A" stroke="#9B9A8A" stroke-width="1.05" stroke-opacity="1"/><polygon points="216,347.7691453623979 198,378.9460598986377 162,378.9460598986377 144,347.7691453623979 162,316.59223082615813 198,316.59223082615813" fill="url(#atlas-conifer_forest)"/></g><g opacity="1"><polygon points="270,316.59223082615813 252,347.7691453623979 216,347.7691453623979 198,316.59223082615813 216,285.41531628991834 252,285.41531628991834" fill="#9B9A8A" stroke="#9B9A8A" stroke-width="1.05" stroke-opacity="1"/><polygon points="270,316.59223082615813 252,347.7691453623979 216,347.7691453623979 198,316.59223082615813 216,285.41531628991834 252,285.41531628991834" fill="url(#atlas-conifer_forest)"/><path d="M-16 9L-5-11 7 9M-5-11l2 10 4-3M3 8l8-15 12 16" transform="translate(234 314.59223082615813) scale(0.75)" fill="none" stroke="#25362F" stroke-width="1.3" stroke-linecap="round" stroke-linejoin="round" opacity=".65"/></g><g opacity="1"><polygon points="324,285.41531628991834 306,316.59223082615813 270,316.59223082615813 252,285.41531628991834 270,254.23840175367854 306,254.23840175367854" fill="#9B9A8A" stroke="#9B9A8A" stroke-width="1.05" stroke-opacity="1"/><polygon points="324,285.41531628991834 306,316.59223082615813 270,316.59223082615813 252,285.41531628991834 270,254.23840175367854 306,254.23840175367854" fill="url(#atlas-conifer_forest)"/><path d="M-16 9L-5-11 7 9M-5-11l2 10 4-3M3 8l8-15 12 16" transform="translate(289 283.41531628991834) scale(0.75)" fill="none" stroke="#25362F" stroke-width="1.3" stroke-linecap="round" stroke-linejoin="round" opacity=".65"/></g><g opacity="1"><polygon points="378,254.23840175367852 360,285.4153162899183 324,285.4153162899183 306,254.23840175367852 324,223.06148721743872 360,223.06148721743872" fill="#C2BB9B" stroke="#C2BB9B" stroke-width="1.05" stroke-opacity="1"/><polygon points="378,254.23840175367852 360,285.4153162899183 324,285.4153162899183 306,254.23840175367852 324,223.06148721743872 360,223.06148721743872" fill="url(#atlas-conifer_forest)"/><path d="M-19 7Q-12-5-5 7M-2 7L8-9l11 16" transform="translate(341 252.23840175367852) scale(0.75)" fill="none" stroke="#25362F" stroke-width="1.3" stroke-linecap="round" stroke-linejoin="round" opacity=".65"/></g><g opacity="1"><polygon points="432,223.06148721743875 414,254.23840175367854 378,254.23840175367854 360,223.06148721743875 378,191.88457268119896 414,191.88457268119896" fill="#C2BB9B" stroke="#C2BB9B" stroke-width="1.05" stroke-opacity="1"/><polygon points="432,223.06148721743875 414,254.23840175367854 378,254.23840175367854 360,223.06148721743875 378,191.88457268119896 414,191.88457268119896" fill="url(#atlas-conifer_forest)"/></g><g opacity="1"><polygon points="486,191.88457268119896 468,223.06148721743875 432,223.06148721743875 414,191.88457268119896 432,160.70765814495917 468,160.70765814495917" fill="#C2BB9B" stroke="#C2BB9B" stroke-width="1.05" stroke-opacity="1"/><polygon points="486,191.88457268119896 468,223.06148721743875 432,223.06148721743875 414,191.88457268119896 432,160.70765814495917 468,160.70765814495917" fill="url(#atlas-conifer_forest)"/><path d="M-19 7Q-12-5-5 7M-2 7L8-9l11 16" transform="translate(448 189.88457268119896) scale(0.75)" fill="none" stroke="#25362F" stroke-width="1.3" stroke-linecap="round" stroke-linejoin="round" opacity=".65"/></g><g opacity="1"><polygon points="540,160.70765814495917 522,191.88457268119896 486,191.88457268119896 468,160.70765814495917 486,129.53074360871938 522,129.53074360871938" fill="#D3DEBA" stroke="#D3DEBA" stroke-width="1.05" stroke-opacity="1"/><polygon points="540,160.70765814495917 522,191.88457268119896 486,191.88457268119896 468,160.70765814495917 486,129.53074360871938 522,129.53074360871938" fill="url(#atlas-conifer_forest)"/></g><g opacity="1"><polygon points="594,129.53074360871938 576,160.70765814495917 540,160.70765814495917 522,129.53074360871938 540,98.35382907247958 576,98.35382907247958" fill="#D3DEBA" stroke="#D3DEBA" stroke-width="1.05" stroke-opacity="1"/><polygon points="594,129.53074360871938 576,160.70765814495917 540,160.70765814495917 522,129.53074360871938 540,98.35382907247958 576,98.35382907247958" fill="url(#atlas-conifer_forest)"/></g><g opacity="1"><polygon points="108,347.7691453623979 90,378.9460598986377 54,378.9460598986377 36,347.7691453623979 54,316.59223082615813 90,316.59223082615813" fill="#9B9A8A" stroke="#9B9A8A" stroke-width="1.05" stroke-opacity="1"/><polygon points="108,347.7691453623979 90,378.9460598986377 54,378.9460598986377 36,347.7691453623979 54,316.59223082615813 90,316.59223082615813" fill="url(#atlas-conifer_forest)"/><path d="M-16 9L-5-11 7 9M-5-11l2 10 4-3M3 8l8-15 12 16" transform="translate(71 345.7691453623979) scale(0.75)" fill="none" stroke="#25362F" stroke-width="1.3" stroke-linecap="round" stroke-linejoin="round" opacity=".65"/></g><g opacity="1"><polygon points="162,316.59223082615813 144,347.7691453623979 108,347.7691453623979 90,316.59223082615813 108,285.41531628991834 144,285.41531628991834" fill="#9B9A8A" stroke="#9B9A8A" stroke-width="1.05" stroke-opacity="1"/><polygon points="162,316.59223082615813 144,347.7691453623979 108,347.7691453623979 90,316.59223082615813 108,285.41531628991834 144,285.41531628991834" fill="url(#atlas-conifer_forest)"/></g><g opacity="1"><polygon points="216,285.41531628991834 198,316.59223082615813 162,316.59223082615813 144,285.41531628991834 162,254.23840175367854 198,254.23840175367854" fill="#9B9A8A" stroke="#9B9A8A" stroke-width="1.05" stroke-opacity="1"/><polygon points="216,285.41531628991834 198,316.59223082615813 162,316.59223082615813 144,285.41531628991834 162,254.23840175367854 198,254.23840175367854" fill="url(#atlas-conifer_forest)"/><path d="M-16 9L-5-11 7 9M-5-11l2 10 4-3M3 8l8-15 12 16" transform="translate(179 283.41531628991834) scale(0.75)" fill="none" stroke="#25362F" stroke-width="1.3" stroke-linecap="round" stroke-linejoin="round" opacity=".65"/></g><g opacity="1"><polygon points="270,254.23840175367852 252,285.4153162899183 216,285.4153162899183 198,254.23840175367852 216,223.06148721743872 252,223.06148721743872" fill="#9B9A8A" stroke="#9B9A8A" stroke-width="1.05" stroke-opacity="1"/><polygon points="270,254.23840175367852 252,285.4153162899183 216,285.4153162899183 198,254.23840175367852 216,223.06148721743872 252,223.06148721743872" fill="url(#atlas-conifer_forest)"/><path d="M-16 9L-5-11 7 9M-5-11l2 10 4-3M3 8l8-15 12 16" transform="translate(236 252.23840175367852) scale(0.75)" fill="none" stroke="#25362F" stroke-width="1.3" stroke-linecap="round" stroke-linejoin="round" opacity=".65"/></g><g opacity="1"><polygon points="324,223.06148721743875 306,254.23840175367854 270,254.23840175367854 252,223.06148721743875 270,191.88457268119896 306,191.88457268119896" fill="#9B9A8A" stroke="#9B9A8A" stroke-width="1.05" stroke-opacity="1"/><polygon points="324,223.06148721743875 306,254.23840175367854 270,254.23840175367854 252,223.06148721743875 270,191.88457268119896 306,191.88457268119896" fill="url(#atlas-conifer_forest)"/><path d="M-16 9L-5-11 7 9M-5-11l2 10 4-3M3 8l8-15 12 16" transform="translate(290 221.06148721743875) scale(0.75)" fill="none" stroke="#25362F" stroke-width="1.3" stroke-linecap="round" stroke-linejoin="round" opacity=".65"/></g><g opacity="1"><polygon points="378,191.88457268119896 360,223.06148721743875 324,223.06148721743875 306,191.88457268119896 324,160.70765814495917 360,160.70765814495917" fill="#C2BB9B" stroke="#C2BB9B" stroke-width="1.05" stroke-opacity="1"/><polygon points="378,191.88457268119896 360,223.06148721743875 324,223.06148721743875 306,191.88457268119896 324,160.70765814495917 360,160.70765814495917" fill="url(#atlas-conifer_forest)"/></g><g opacity="1"><polygon points="432,160.70765814495917 414,191.88457268119896 378,191.88457268119896 360,160.70765814495917 378,129.53074360871938 414,129.53074360871938" fill="#C2BB9B" stroke="#C2BB9B" stroke-width="1.05" stroke-opacity="1"/><polygon points="432,160.70765814495917 414,191.88457268119896 378,191.88457268119896 360,160.70765814495917 378,129.53074360871938 414,129.53074360871938" fill="url(#atlas-conifer_forest)"/><path d="M-19 7Q-12-5-5 7M-2 7L8-9l11 16" transform="translate(396 158.70765814495917) scale(0.75)" fill="none" stroke="#25362F" stroke-width="1.3" stroke-linecap="round" stroke-linejoin="round" opacity=".65"/></g><g opacity="1"><polygon points="486,129.53074360871938 468,160.70765814495917 432,160.70765814495917 414,129.53074360871938 432,98.35382907247958 468,98.35382907247958" fill="#C2BB9B" stroke="#C2BB9B" stroke-width="1.05" stroke-opacity="1"/><polygon points="486,129.53074360871938 468,160.70765814495917 432,160.70765814495917 414,129.53074360871938 432,98.35382907247958 468,98.35382907247958" fill="url(#atlas-conifer_forest)"/><path d="M-19 7Q-12-5-5 7M-2 7L8-9l11 16" transform="translate(451 127.53074360871938) scale(0.75)" fill="none" stroke="#25362F" stroke-width="1.3" stroke-linecap="round" stroke-linejoin="round" opacity=".65"/></g><g opacity="1"><polygon points="540,98.35382907247958 522,129.53074360871938 486,129.53074360871938 468,98.35382907247958 486,67.17691453623979 522,67.17691453623979" fill="#D3DEBA" stroke="#D3DEBA" stroke-width="1.05" stroke-opacity="1"/><polygon points="540,98.35382907247958 522,129.53074360871938 486,129.53074360871938 468,98.35382907247958 486,67.17691453623979 522,67.17691453623979" fill="url(#atlas-conifer_forest)"/></g><g opacity="1"><polygon points="108,285.41531628991834 90,316.59223082615813 54,316.59223082615813 36,285.41531628991834 54,254.23840175367854 90,254.23840175367854" fill="#9B9A8A" stroke="#9B9A8A" stroke-width="1.05" stroke-opacity="1"/><polygon points="108,285.41531628991834 90,316.59223082615813 54,316.59223082615813 36,285.41531628991834 54,254.23840175367854 90,254.23840175367854" fill="url(#atlas-conifer_forest)"/></g><g opacity="1"><polygon points="162,254.23840175367852 144,285.4153162899183 108,285.4153162899183 90,254.23840175367852 108,223.06148721743872 144,223.06148721743872" fill="#9B9A8A" stroke="#9B9A8A" stroke-width="1.05" stroke-opacity="1"/><polygon points="162,254.23840175367852 144,285.4153162899183 108,285.4153162899183 90,254.23840175367852 108,223.06148721743872 144,223.06148721743872" fill="url(#atlas-conifer_forest)"/><path d="M-16 9L-5-11 7 9M-5-11l2 10 4-3M3 8l8-15 12 16" transform="translate(128 252.23840175367852) scale(0.75)" fill="none" stroke="#25362F" stroke-width="1.3" stroke-linecap="round" stroke-linejoin="round" opacity=".65"/></g><g opacity="1"><polygon points="216,223.06148721743875 198,254.23840175367854 162,254.23840175367854 144,223.06148721743875 162,191.88457268119896 198,191.88457268119896" fill="#9B9A8A" stroke="#9B9A8A" stroke-width="1.05" stroke-opacity="1"/><polygon points="216,223.06148721743875 198,254.23840175367854 162,254.23840175367854 144,223.06148721743875 162,191.88457268119896 198,191.88457268119896" fill="url(#atlas-conifer_forest)"/><path d="M-16 9L-5-11 7 9M-5-11l2 10 4-3M3 8l8-15 12 16" transform="translate(178 221.06148721743875) scale(0.75)" fill="none" stroke="#25362F" stroke-width="1.3" stroke-linecap="round" stroke-linejoin="round" opacity=".65"/></g><g opacity="1"><polygon points="270,191.88457268119896 252,223.06148721743875 216,223.06148721743875 198,191.88457268119896 216,160.70765814495917 252,160.70765814495917" fill="#9B9A8A" stroke="#9B9A8A" stroke-width="1.05" stroke-opacity="1"/><polygon points="270,191.88457268119896 252,223.06148721743875 216,223.06148721743875 198,191.88457268119896 216,160.70765814495917 252,160.70765814495917" fill="url(#atlas-conifer_forest)"/><path d="M-16 9L-5-11 7 9M-5-11l2 10 4-3M3 8l8-15 12 16" transform="translate(233 189.88457268119896) scale(0.75)" fill="none" stroke="#25362F" stroke-width="1.3" stroke-linecap="round" stroke-linejoin="round" opacity=".65"/></g><g opacity="1"><polygon points="324,160.70765814495917 306,191.88457268119896 270,191.88457268119896 252,160.70765814495917 270,129.53074360871938 306,129.53074360871938" fill="#9B9A8A" stroke="#9B9A8A" stroke-width="1.05" stroke-opacity="1"/><polygon points="324,160.70765814495917 306,191.88457268119896 270,191.88457268119896 252,160.70765814495917 270,129.53074360871938 306,129.53074360871938" fill="url(#atlas-conifer_forest)"/></g><g opacity="1"><polygon points="378,129.53074360871938 360,160.70765814495917 324,160.70765814495917 306,129.53074360871938 324,98.35382907247958 360,98.35382907247958" fill="#C2BB9B" stroke="#C2BB9B" stroke-width="1.05" stroke-opacity="1"/><polygon points="378,129.53074360871938 360,160.70765814495917 324,160.70765814495917 306,129.53074360871938 324,98.35382907247958 360,98.35382907247958" fill="url(#atlas-conifer_forest)"/><path d="M-19 7Q-12-5-5 7M-2 7L8-9l11 16" transform="translate(341 127.53074360871938) scale(0.75)" fill="none" stroke="#25362F" stroke-width="1.3" stroke-linecap="round" stroke-linejoin="round" opacity=".65"/></g><g opacity="1"><polygon points="432,98.35382907247958 414,129.53074360871938 378,129.53074360871938 360,98.35382907247958 378,67.17691453623979 414,67.17691453623979" fill="#C2BB9B" stroke="#C2BB9B" stroke-width="1.05" stroke-opacity="1"/><polygon points="432,98.35382907247958 414,129.53074360871938 378,129.53074360871938 360,98.35382907247958 378,67.17691453623979 414,67.17691453623979" fill="url(#atlas-conifer_forest)"/><path d="M-19 7Q-12-5-5 7M-2 7L8-9l11 16" transform="translate(397 96.35382907247958) scale(0.75)" fill="none" stroke="#25362F" stroke-width="1.3" stroke-linecap="round" stroke-linejoin="round" opacity=".65"/></g><g opacity="1"><polygon points="486,67.17691453623979 468,98.35382907247958 432,98.35382907247958 414,67.17691453623979 432,36 468,36" fill="#C2BB9B" stroke="#C2BB9B" stroke-width="1.05" stroke-opacity="1"/><polygon points="486,67.17691453623979 468,98.35382907247958 432,98.35382907247958 414,67.17691453623979 432,36 468,36" fill="url(#atlas-conifer_forest)"/><path d="M-19 7Q-12-5-5 7M-2 7L8-9l11 16" transform="translate(449 65.17691453623979) scale(0.75)" fill="none" stroke="#25362F" stroke-width="1.3" stroke-linecap="round" stroke-linejoin="round" opacity=".65"/></g><defs><mask id="river-land" maskUnits="userSpaceOnUse" x="0" y="0" width="900" height="1007.3074360871937"><rect x="0" y="0" width="900" height="1007.3074360871937" fill="white"/><path d="" fill="black"/></mask><mask id="shore-river-gaps" maskUnits="userSpaceOnUse" x="0" y="0" width="900" height="1007.3074360871937"><rect x="0" y="0" width="900" height="1007.3074360871937" fill="white"/><path d="" fill="black"/></mask></defs><path data-water-shore="true" d="" fill="none" stroke="#486E77" stroke-width="1.2" opacity=".7" mask="url(#shore-river-gaps)"/><g mask="url(#river-land)"></g></svg>